<svg xmlns="http://www.w3.org/2000/svg" width="324" height="82" viewBox="0 0 324 82" fill="none">
<path opacity="0.2" d="M160.872 69.4347C134.092 68.8372 103.368 78.5937 71.007 96.9592C57.3455 104.708 43.7972 113.496 29.5652 118.44C15.3232 123.392 -0.226486 123.586 -6.10397 115.073C-13.3096 104.617 -3.1344 86.1295 10.2367 72.6401C38.357 44.2747 76.3422 18.8337 113.194 17.0927C141.895 15.7327 164.867 27.9076 194.346 23.877C222.887 19.9791 253.795 1.28959 281.301 0.724023C295.791 0.425056 307.816 5.3048 317.771 11.8228C331.858 21.0632 342.683 34.2362 344.464 51.4965C346.25 68.7637 337.75 90.4821 319.83 106.255C272.855 147.602 235.428 108.402 213.713 89.2139C199.018 76.2381 181.064 69.8929 160.872 69.4347Z" fill="#69779B"/>
</svg>