<svg width="62" height="51" viewBox="0 0 62 51" fill="none" xmlns="http://www.w3.org/2000/svg">
<g id="hackerButton_duck" clip-path="url(#clip0_437_2090)">
<path id="Vector" d="M53.0163 24.8744C53.0163 24.8744 60.4673 16.8621 61.1289 24.6876C61.7905 32.5131 54.4255 38.1001 54.4255 38.1001L49.961 42.4105L46.5612 32.2319C48.7111 29.5351 50.8664 27.0785 53.0163 24.8744Z" fill="#EFD565"/>
<path id="Vector_2" d="M20.1319 7.68499C26.9897 5.73196 34.2598 5.73196 41.1176 7.68499H41.1819C44.1897 8.53415 46.9193 10.1589 49.0948 12.3951C51.2702 14.6313 52.8146 17.3997 53.5717 20.4206C55.0097 26.1747 56.4606 44.7667 56.4606 50.2714C56.4606 50.2714 57.1796 61.6645 30.6794 61.6645C4.17914 61.6645 5.00085 50.2714 5.00085 50.2714C5.00085 50.2714 5.00081 42.3244 5.20624 38.8784C5.53088 32.6851 6.39 26.5311 7.77409 20.4846C8.52042 17.457 10.0571 14.6797 12.2285 12.4342C14.3998 10.1886 17.1286 8.55461 20.1383 7.69778L20.1319 7.68499Z" fill="#F2F2F2"/>
<path id="Vector_3" d="M20.1319 7.68499C26.9897 5.73196 34.2598 5.73196 41.1176 7.68499H41.1819C44.1897 8.53415 46.9193 10.1589 49.0948 12.3951C51.2702 14.6313 52.8146 17.3997 53.5717 20.4206C55.0097 26.1747 56.4606 44.7667 56.4606 50.2714C56.4606 50.2714 57.1796 61.6645 30.6794 61.6645C4.17914 61.6645 5.00085 50.2714 5.00085 50.2714C5.00085 50.2714 5.00081 42.3244 5.20624 38.8784C5.53088 32.6851 6.39 26.5311 7.77409 20.4846C8.52042 17.457 10.0571 14.6797 12.2285 12.4342C14.3998 10.1886 17.1286 8.55461 20.1383 7.69778L20.1319 7.68499Z" fill="#FFE36C"/>
<path id="Vector_4" d="M45.9843 27.46C47.5585 27.46 48.8347 26.1891 48.8347 24.6214C48.8347 23.0536 47.5585 21.7827 45.9843 21.7827C44.4102 21.7827 43.134 23.0536 43.134 24.6214C43.134 26.1891 44.4102 27.46 45.9843 27.46Z" fill="black"/>
<path id="Vector_5" d="M23.0976 27.46C24.6718 27.46 25.9479 26.1891 25.9479 24.6214C25.9479 23.0536 24.6718 21.7827 23.0976 21.7827C21.5234 21.7827 20.2473 23.0536 20.2473 24.6214C20.2473 26.1891 21.5234 27.46 23.0976 27.46Z" fill="black"/>
<path id="Vector_6" d="M19.1506 36.998C21.5899 36.998 23.5673 35.0287 23.5673 32.5993C23.5673 30.17 21.5899 28.2007 19.1506 28.2007C16.7113 28.2007 14.7339 30.17 14.7339 32.5993C14.7339 35.0287 16.7113 36.998 19.1506 36.998Z" fill="#FFA052"/>
<path id="Vector_7" d="M49.739 36.998C52.1783 36.998 54.1557 35.0287 54.1557 32.5993C54.1557 30.17 52.1783 28.2007 49.739 28.2007C47.2997 28.2007 45.3223 30.17 45.3223 32.5993C45.3223 35.0287 47.2997 36.998 49.739 36.998Z" fill="#FFA052"/>
<path id="Vector_8" d="M38.8263 32.5276H31.7648C30.7976 32.5243 29.8712 32.1397 29.1879 31.458C28.5046 30.7763 28.1201 29.853 28.1184 28.8898C28.1184 26.8951 33.2926 25.5588 35.302 25.5588C37.3049 25.5588 42.4791 26.8951 42.4791 28.8898C42.4774 29.8541 42.0921 30.7784 41.4074 31.4603C40.7227 32.1421 39.7946 32.5259 38.8263 32.5276Z" fill="#FFBB4D"/>
<path id="Vector_9" d="M29.8123 6.21964C29.8123 6.21964 30.0819 2.24934 32.5534 -0.352769C32.6123 -0.413883 32.6874 -0.457104 32.7699 -0.477416C32.8525 -0.497727 32.9392 -0.494295 33.0198 -0.467514C33.1005 -0.440732 33.1719 -0.391707 33.2257 -0.326127C33.2795 -0.260546 33.3135 -0.181107 33.3238 -0.0970372C33.586 1.76493 34.1611 3.56966 35.025 5.24145C35.2907 5.65413 35.6417 6.0056 36.0546 6.27241C36.4675 6.53922 36.9329 6.71522 37.4195 6.78865" fill="#FFE36C"/>
<path id="Vector_10" d="M34.3453 6.39084C32.3928 5.00949 30.7616 3.22584 29.5626 1.16103C29.5219 1.08557 29.4603 1.02332 29.3851 0.981688C29.31 0.940056 29.2244 0.920793 29.1385 0.926179C29.0527 0.931564 28.9702 0.961378 28.9008 1.01208C28.8315 1.06277 28.7782 1.13222 28.7474 1.21218C28.4441 2.25188 28.2779 3.32647 28.253 4.40888C28.2232 4.92241 28.0146 5.40951 27.6631 5.78641C27.3116 6.1633 26.8392 6.40642 26.3271 6.47395" fill="#FFE36C"/>
<path id="Vector_11" d="M2.85629 32.3712C2.85629 32.3712 -2.52615 37.6838 2.64485 38.7569C7.81586 39.83 11.5925 34.4144 11.5925 34.4144L14.4931 31.1966L7.79467 27.7979C5.98687 29.3037 4.33799 30.8307 2.85629 32.3712Z" fill="#FFE36C"/>
</g>
<defs>
<clipPath id="clip0_437_2090">
<rect width="62" height="51" fill="white"/>
</clipPath>
</defs>
</svg>
