<svg width="60" height="49" viewBox="0 0 60 49" fill="none" xmlns="http://www.w3.org/2000/svg">
<g id="judgeButton_frog" clip-path="url(#clip0_437_2194)">
<g id="Group 237832">
<path id="Vector" d="M58.1973 40.174C58.1973 40.174 62.1817 47.6007 58.6555 50.9423C55.1293 54.284 52.2339 46.15 52.2339 46.15L50.0757 41.5236L54.5581 33.8154C55.885 35.8555 57.1001 37.9787 58.1973 40.174Z" fill="#4B9B3A"/>
<path id="Vector_2" d="M4.94557 33.8812C4.94557 33.8812 -3.02327 64.1366 32.4978 61.8776C62.6864 59.9577 54.5515 33.8812 54.5515 33.8812C55.9845 32.4033 57.0731 30.5758 57.7274 28.55C58.3817 26.5241 58.5828 24.3581 58.3142 22.231C58.0455 20.1039 57.3148 18.0769 56.1825 16.3175C55.0501 14.5582 53.5487 13.1172 51.8023 12.1135C52.3932 9.79287 52.1568 7.31535 51.1404 5.17581C50.124 3.03627 48.4024 1.39221 46.3194 0.571963C44.2365 -0.248281 41.9454 -0.18432 39.9039 0.751076C37.8625 1.68647 36.2208 3.42444 35.3068 5.61788H26.1559C25.3202 3.63057 23.8839 2.01393 22.0858 1.03661C20.2876 0.0592886 18.2359 -0.219844 16.2716 0.245585C14.3073 0.711013 12.5487 1.89298 11.288 3.59507C10.0273 5.29715 9.34052 7.41683 9.34171 9.60188C9.34736 10.1713 9.4007 10.739 9.50108 11.298C7.47655 12.0516 5.66504 13.3599 4.24152 15.0966C2.818 16.8332 1.83057 18.9394 1.37462 21.2119C0.918664 23.4843 1.00959 25.8461 1.6386 28.0692C2.26762 30.2923 3.41348 32.3016 4.96549 33.9029L4.94557 33.8812Z" fill="#49B236"/>
<path id="Vector_3" d="M46.3831 43.9498V58.2259C43.0628 60.1457 38.5338 61.4953 32.4974 61.8779C25.8567 62.3037 20.7368 61.5892 16.7988 60.1529V43.9498C16.8041 41.8843 17.5614 39.905 18.9052 38.4444C20.2491 36.9838 22.0703 36.1607 23.9708 36.155H39.2444C41.1391 36.1702 42.9518 36.9975 44.2885 38.457C45.6252 39.9166 46.3779 41.8905 46.3831 43.9498Z" fill="#9CD43D"/>
<path id="Vector_4" d="M43.3948 16.8485C45.0231 16.8485 46.3432 15.4138 46.3432 13.644C46.3432 11.8742 45.0231 10.4395 43.3948 10.4395C41.7664 10.4395 40.4463 11.8742 40.4463 13.644C40.4463 15.4138 41.7664 16.8485 43.3948 16.8485Z" fill="black"/>
<path id="Vector_5" d="M19.7473 16.8485C21.3757 16.8485 22.6958 15.4138 22.6958 13.644C22.6958 11.8742 21.3757 10.4395 19.7473 10.4395C18.1189 10.4395 16.7988 11.8742 16.7988 13.644C16.7988 15.4138 18.1189 16.8485 19.7473 16.8485Z" fill="black"/>
<path id="Vector_6" d="M1.63213 40.4409C1.63213 40.4409 -2.04017 48.0625 1.63213 51.2237C5.30444 54.385 7.84117 46.1138 7.84117 46.1138L9.83337 41.3864L5.02552 33.9092C3.77988 36.0138 2.64688 38.1946 1.63213 40.4409Z" fill="#49B236"/>
<path id="Vector_7" d="M28.852 16.8623H35.745C36.0791 16.862 36.4078 16.9529 36.701 17.1268C36.9943 17.3007 37.2426 17.5519 37.4231 17.8573C37.6036 18.1628 37.7106 18.5127 37.7342 18.8748C37.7577 19.2369 37.6971 19.5997 37.5579 19.9297C36.8407 21.5969 35.3532 23.3147 32.2985 23.3147C29.2438 23.3147 27.7629 21.5969 27.0391 19.9297C26.8999 19.5997 26.8393 19.2369 26.8629 18.8748C26.8864 18.5127 26.9934 18.1628 27.1739 17.8573C27.3545 17.5519 27.6028 17.3007 27.896 17.1268C28.1892 16.9529 28.518 16.862 28.852 16.8623Z" fill="white"/>
<path id="Vector_8" d="M50.5869 27.5737C53.4586 27.5737 55.7865 25.1728 55.7865 22.2112C55.7865 19.2495 53.4586 16.8486 50.5869 16.8486C47.7152 16.8486 45.3872 19.2495 45.3872 22.2112C45.3872 25.1728 47.7152 27.5737 50.5869 27.5737Z" fill="#9CD43D"/>
<path id="Vector_9" d="M14.0097 27.5737C16.8814 27.5737 19.2094 25.1728 19.2094 22.2112C19.2094 19.2495 16.8814 16.8486 14.0097 16.8486C11.138 16.8486 8.81006 19.2495 8.81006 22.2112C8.81006 25.1728 11.138 27.5737 14.0097 27.5737Z" fill="#9CD43D"/>
</g>
</g>
<defs>
<clipPath id="clip0_437_2194">
<rect width="60" height="49" fill="white"/>
</clipPath>
</defs>
</svg>
