<svg xmlns="http://www.w3.org/2000/svg" width="73" height="73" viewBox="0 0 73 73" fill="none">
<mask id="mask0_418_477" style="mask-type:alpha" maskUnits="userSpaceOnUse" x="0" y="0" width="73" height="73">
<path d="M22.1929 36.6795V26.355L0.503662 48.0122L5.62778 53.235L22.1929 36.6795ZM71.6154 30.2267C70.0084 22.1607 63.9342 16.1111 63.2368 15.3953L48.3292 0.271484L39.8092 8.77108L39.2027 9.376V19.7005L48.2989 10.6263L56.7785 19.2267L58.0722 20.5374L58.1631 20.6281C58.1631 20.6281 58.7292 21.1826 59.5074 22.1102C61.8944 24.8466 63.5892 28.1139 64.4497 31.6382C65.6625 37.6878 66.2689 44.8161 59.5074 53.4669V64.1342C60.1442 63.5797 60.518 63.1865 60.6899 63.0453C66.754 57.1168 70.3823 51.1278 71.8074 44.7254C72.7935 39.9357 72.7315 34.9902 71.6255 30.2267H71.6154ZM26.458 62.0975L26.2357 61.9866H26.1245C25.4639 61.6424 24.8349 61.2409 24.2446 60.7868C23.6888 60.3936 23.0116 59.8693 22.2233 59.1938C20.9902 58.1855 19.4539 56.8143 17.5841 54.9894L13.3899 50.7144L8.21519 55.8766L12.3893 60.1214V60.1819C18.8476 66.4734 22.1626 68.2479 23.3856 68.7621C27.258 70.6649 31.4545 71.8243 35.7563 72.1801C37.7331 72.334 39.7203 72.2935 41.6891 72.0591L42.1641 72.0087V64.6081C36.7976 65.4561 31.2998 64.5767 26.4681 62.0975H26.458Z" fill="white"/>
<path d="M35.5538 13.0273V57.1081H25.8613V22.7065L26.8315 21.7386L27.3571 21.2143L30.2881 18.2904L32.269 16.3142L32.9159 15.669L34.9069 13.6827L35.5538 13.0273Z" fill="white"/>
<path d="M55.8487 22.8755V66.8555L55.7274 66.9462C55.2827 67.2285 54.8077 67.5209 54.3023 67.8032C54.1406 67.904 53.9688 67.9948 53.797 68.0855C53.3523 68.3376 52.8773 68.5896 52.3921 68.8316C51.907 69.0736 51.4724 69.2753 50.9873 69.487L50.1888 69.8298L49.0973 70.2533L48.2079 70.5658C47.6015 70.7675 46.9749 70.959 46.328 71.1304L45.853 71.2515V22.8755H55.8487Z" fill="white"/>
<path d="M45.8531 34.501H35.5542V44.4827H45.8531V34.501Z" fill="white"/>
</mask>
<g mask="url(#mask0_418_477)">
<rect x="0.503662" y="0.271484" width="72" height="72" fill="url(#paint0_linear_418_477)"/>
</g>
<defs>
<linearGradient id="paint0_linear_418_477" x1="58.602" y1="92.1794" x2="-1.25072" y2="76.8258" gradientUnits="userSpaceOnUse">
<stop stop-color="#FCFCD1"/>
<stop offset="0.494792" stop-color="#B2E7DD"/>
<stop offset="0.989583" stop-color="#76D6E6"/>
</linearGradient>
</defs>
</svg>