<svg xmlns="http://www.w3.org/2000/svg" width="154" height="308" viewBox="0 0 154 308" fill="none">
<path opacity="0.2" d="M40.209 167.091C50.9426 191.632 72.7288 215.392 103.013 237.012C115.793 246.141 129.469 254.729 139.946 265.556C150.434 276.39 157.157 290.412 151.91 299.328C145.461 310.266 124.407 308.821 106.542 302.372C68.9732 288.81 29.9035 265.068 12.8077 232.374C-0.510263 206.915 0.860469 180.952 -15.2079 155.91C-30.7606 131.664 -60.7266 111.498 -72.8212 86.7872C-79.1932 73.7706 -79.8301 60.8092 -78.1097 49.0349C-75.6596 32.367 -68.2693 17.0016 -53.3634 8.11865C-38.4533 -0.771387 -15.1752 -2.2066 6.67689 7.40593C63.9592 32.6047 44.162 83.0576 35.9006 110.834C30.3184 129.626 32.1226 148.582 40.209 167.091Z" fill="#69779B"/>
</svg>