<svg width="230" height="183" viewBox="0 0 230 183" fill="none" xmlns="http://www.w3.org/2000/svg">
<g id="bg_topright" clip-path="url(#clip0_437_2246)">
<path id="Vector" opacity="0.15" d="M198.109 58.5347C182.497 53.5874 175.224 36.2528 173.638 20.3338C172.053 4.41483 174.19 -12.1812 169.074 -27.2945C158.194 -59.3811 113.963 -73.1818 82.1067 -57.7887C50.2436 -42.3865 33.6333 -4.30767 39.3313 29.1504C45.0201 62.6024 69.869 90.6102 100.45 106.63C127.32 120.709 159.494 126.513 189.812 119.744C220.131 112.975 282.657 95.4931 295.509 67.9076C303.038 51.7488 301.179 22.9001 280.702 36.4028C264.807 46.9078 222.401 66.2358 198.109 58.5347Z" fill="#CDF0FD"/>
</g>
<defs>
<clipPath id="clip0_437_2246">
<rect width="230" height="183" fill="white"/>
</clipPath>
</defs>
</svg>
