<svg xmlns="http://www.w3.org/2000/svg" width="254" height="253" viewBox="0 0 254 253" fill="none">
<path opacity="0.2" d="M106.305 124.812C87.1245 108.269 75.4846 84.7066 71.2546 56.3398C69.4646 44.3662 68.7845 32.0079 63.8145 20.907C58.8445 9.79673 48.2445 -0.0467513 35.7145 0.000167045C20.3345 0.0658528 9.04455 14.5636 4.93455 28.8737C-3.70545 58.9672 -2.59545 93.9683 21.2545 117.859C39.8245 136.467 67.8546 145.541 84.3146 165.81C100.255 185.431 103.155 213.028 121.685 230.538C131.445 239.763 144.635 245.168 158.015 248.555C176.965 253.341 197.555 254.354 215.925 247.898C234.305 241.442 249.965 226.578 253.185 208.412C261.625 160.79 196.735 154.502 162.615 149.294C139.535 145.766 120.775 137.283 106.305 124.812Z" fill="#69779B"/>
</svg>