<svg width="22" height="22" viewBox="0 0 22 22" fill="none" xmlns="http://www.w3.org/2000/svg">
<g id="Union">
<path fill-rule="evenodd" clip-rule="evenodd" d="M14.7317 9.58531C14.9016 8.70462 14.9906 7.7951 14.9906 6.86479V0.479736H0.718155V21.1373C4.1744 21.1373 7.3437 19.9087 9.81321 17.8645C12.2769 19.5058 16.2273 21.0658 21 20.198C19.6854 19.6347 14.6149 16.2543 14.8027 9.49368C14.78 9.52493 14.7563 9.55546 14.7317 9.58531Z" fill="#9EE7E5"/>
<path d="M14.7317 9.58531L14.9573 9.77165L14.4443 9.52985L14.7317 9.58531ZM14.9906 0.479736V0.187117H15.2833V0.479736H14.9906ZM0.718155 0.479736H0.425535V0.187117H0.718155V0.479736ZM0.718155 21.1373V21.4299H0.425535V21.1373H0.718155ZM9.81321 17.8645L9.62662 17.6391L9.79429 17.5003L9.97544 17.621L9.81321 17.8645ZM21 20.198L21.1153 19.9291L22.0088 20.312L21.0523 20.4859L21 20.198ZM14.8027 9.49368L14.5661 9.32157L15.1215 8.55792L15.0952 9.50181L14.8027 9.49368ZM15.2833 6.86479C15.2833 7.8138 15.1925 8.74189 15.019 9.64076L14.4443 9.52985C14.6108 8.66735 14.698 7.77639 14.698 6.86479H15.2833ZM15.2833 0.479736V6.86479H14.698V0.479736H15.2833ZM0.718155 0.187117H14.9906V0.772356H0.718155V0.187117ZM0.425535 21.1373V0.479736H1.01077V21.1373H0.425535ZM9.9998 18.09C7.47976 20.176 4.245 21.4299 0.718155 21.4299V20.8447C4.10379 20.8447 7.20765 19.6415 9.62662 17.6391L9.9998 18.09ZM21.0523 20.4859C16.1864 21.3707 12.16 19.7795 9.65098 18.1081L9.97544 17.621C12.3938 19.2321 16.2682 20.761 20.9477 19.9101L21.0523 20.4859ZM15.0952 9.50181C15.0036 12.8014 16.1934 15.2707 17.5665 16.987C18.9453 18.7105 20.5028 19.6666 21.1153 19.9291L20.8847 20.467C20.1826 20.1661 18.5476 19.1503 17.1095 17.3526C15.6656 15.5478 14.4141 12.9466 14.5102 9.48555L15.0952 9.50181ZM14.506 9.39896C14.5269 9.37367 14.547 9.34788 14.5661 9.32157L15.0394 9.66579C15.0131 9.70198 14.9857 9.73726 14.9573 9.77165L14.506 9.39896Z" fill="#9EE7E5"/>
</g>
</svg>
