<svg width="22" height="22" viewBox="0 0 22 22" fill="none" xmlns="http://www.w3.org/2000/svg">
<g id="Union">
<path fill-rule="evenodd" clip-rule="evenodd" d="M7.26834 9.5167C7.09837 8.63602 7.00936 7.72649 7.00936 6.79618V0.411133H21.2818V21.0687C17.8256 21.0687 14.6563 19.8401 12.1868 17.7959C9.7231 19.4372 5.77271 20.9972 1 20.1294C2.31457 19.566 7.38506 16.1857 7.19726 9.42508C7.21999 9.45633 7.24369 9.48686 7.26834 9.5167Z" fill="white"/>
<path d="M7.26834 9.5167L7.04273 9.70305L7.55566 9.46125L7.26834 9.5167ZM7.00936 0.411133V0.118513H6.71674V0.411133H7.00936ZM21.2818 0.411133H21.5745V0.118513H21.2818V0.411133ZM21.2818 21.0687V21.3613H21.5745V21.0687H21.2818ZM12.1868 17.7959L12.3734 17.5705L12.2057 17.4317L12.0246 17.5524L12.1868 17.7959ZM1 20.1294L0.884732 19.8605L-0.00882781 20.2434L0.947655 20.4173L1 20.1294ZM7.19726 9.42508L7.43391 9.25297L6.87854 8.48932L6.90476 9.4332L7.19726 9.42508ZM6.71674 6.79618C6.71674 7.7452 6.80755 8.67329 6.98102 9.57215L7.55566 9.46125C7.3892 8.59875 7.30198 7.70779 7.30198 6.79618H6.71674ZM6.71674 0.411133V6.79618H7.30198V0.411133H6.71674ZM21.2818 0.118513H7.00936V0.703753H21.2818V0.118513ZM21.5745 21.0687V0.411133H20.9892V21.0687H21.5745ZM12.0002 18.0214C14.5202 20.1074 17.755 21.3613 21.2818 21.3613V20.7761C17.8962 20.7761 14.7924 19.5729 12.3734 17.5705L12.0002 18.0214ZM0.947655 20.4173C5.81356 21.302 9.83999 19.7109 12.349 18.0395L12.0246 17.5524C9.6062 19.1635 5.73185 20.6924 1.05235 19.8415L0.947655 20.4173ZM6.90476 9.4332C6.99641 12.7328 5.80655 15.2021 4.43352 16.9184C3.05474 18.6419 1.49719 19.598 0.884732 19.8605L1.11527 20.3984C1.81738 20.0975 3.45236 19.0817 4.89052 17.284C6.33442 15.4791 7.58591 12.878 7.48977 9.41695L6.90476 9.4332ZM7.49395 9.33035C7.47306 9.30506 7.45305 9.27927 7.43391 9.25297L6.96061 9.59719C6.98693 9.63338 7.01432 9.66866 7.04273 9.70305L7.49395 9.33035Z" fill="white"/>
</g>
</svg>
