<svg width="92" height="87" viewBox="0 0 92 87" fill="none" xmlns="http://www.w3.org/2000/svg">
<g clip-path="url(#clip0_33_3190)">
<path d="M62.6808 76.8345H76.2759V79.0998C76.2759 80.9022 75.5597 82.6307 74.2849 83.9052C73.0101 85.1797 71.2811 85.8957 69.4783 85.8957C67.6755 85.8957 65.9465 85.1797 64.6718 83.9052C63.397 82.6307 62.6808 80.9022 62.6808 79.0998V76.8345Z" fill="#4B9B3A"/>
<path d="M88.2039 55.8779C88.2039 55.8779 94.1929 66.1466 88.8927 70.767C83.5924 75.3874 79.2404 64.1408 79.2404 64.1408L75.9963 57.7441L82.734 47.0862C84.7283 49.9069 86.5548 52.8426 88.2039 55.8779Z" fill="#4B9B3A"/>
<path d="M8.16095 47.1762C8.16095 47.1762 -3.81707 89.0093 49.5749 85.8858C94.9516 83.2313 82.724 47.1762 82.724 47.1762C84.8779 45.1327 86.5142 42.6059 87.4977 39.8048C88.4812 37.0037 88.7835 34.0088 88.3797 31.0677C87.9759 28.1266 86.8775 25.3239 85.1755 22.8914C83.4734 20.4588 81.2166 18.4663 78.5916 17.0786C79.4798 13.8699 79.1245 10.4443 77.5967 7.48603C76.069 4.52775 73.4812 2.25455 70.3503 1.12043C67.2194 -0.0137009 63.7757 0.0747366 60.7071 1.36808C57.6386 2.66142 55.171 5.06447 53.7972 8.09726H40.0424C38.7862 5.34948 36.6273 3.11418 33.9245 1.76288C31.2217 0.411566 28.1378 0.0256183 25.1852 0.669152C22.2327 1.31269 19.5893 2.94696 17.6943 5.30038C15.7994 7.6538 14.767 10.5846 14.7688 13.6058C14.7773 14.3932 14.8575 15.1781 15.0084 15.951C11.9653 16.993 9.24238 18.802 7.10268 21.2031C4.96298 23.6043 3.47877 26.5166 2.79342 29.6586C2.10807 32.8006 2.24474 36.0663 3.19022 39.1401C4.13569 42.2139 5.85804 44.992 8.19089 47.2061L8.16095 47.1762Z" fill="#49B236"/>
<path d="M14.6989 76.8345H27.4055V79.5389C27.4055 81.2248 26.7356 82.8417 25.5432 84.0338C24.3508 85.2259 22.7335 85.8957 21.0472 85.8957C19.3626 85.893 17.7479 85.2221 16.5576 84.0303C15.3674 82.8384 14.6989 81.2231 14.6989 79.5389V76.8345Z" fill="#49B236"/>
<path d="M70.4466 61.0974V80.8365C65.4557 83.491 58.6482 85.3571 49.5749 85.886C39.5932 86.4748 31.8974 85.4868 25.9782 83.501V61.0974C25.9861 58.2415 27.1244 55.5047 29.1444 53.4853C31.1643 51.4658 33.9018 50.3277 36.7584 50.3198H59.7163C62.5643 50.3408 65.2889 51.4847 67.2981 53.5027C69.3073 55.5208 70.4387 58.2501 70.4466 61.0974Z" fill="#9CD43D"/>
<path d="M65.9547 23.6252C68.4023 23.6252 70.3865 21.6414 70.3865 19.1944C70.3865 16.7473 68.4023 14.7635 65.9547 14.7635C63.507 14.7635 61.5228 16.7473 61.5228 19.1944C61.5228 21.6414 63.507 23.6252 65.9547 23.6252Z" fill="black"/>
<path d="M30.4101 23.6252C32.8577 23.6252 34.842 21.6414 34.842 19.1944C34.842 16.7473 32.8577 14.7635 30.4101 14.7635C27.9624 14.7635 25.9782 16.7473 25.9782 19.1944C25.9782 21.6414 27.9624 23.6252 30.4101 23.6252Z" fill="black"/>
<path d="M3.18 56.2472C3.18 56.2472 -2.33986 66.7853 3.18 71.1562C8.69987 75.5272 12.5128 64.0909 12.5128 64.0909L15.5073 57.5545L8.28062 47.2159C6.4083 50.1259 4.70528 53.1413 3.18 56.2472Z" fill="#49B236"/>
<path d="M44.0948 23.645H54.4558C54.9579 23.6445 55.452 23.7703 55.8928 24.0107C56.3335 24.2511 56.7067 24.5985 56.9781 25.0208C57.2494 25.4431 57.4102 25.9269 57.4456 26.4276C57.4811 26.9283 57.39 27.4299 57.1808 27.8862C56.1027 30.1914 53.8669 32.5665 49.2753 32.5665C44.6837 32.5665 42.4578 30.1914 41.3698 27.8862C41.1606 27.4299 41.0695 26.9283 41.1049 26.4276C41.1404 25.9269 41.3011 25.4431 41.5725 25.0208C41.8438 24.5985 42.2171 24.2511 42.6578 24.0107C43.0986 23.7703 43.5927 23.6445 44.0948 23.645Z" fill="white"/>
<path d="M76.7648 38.4542C81.0813 38.4542 84.5805 35.1346 84.5805 31.0396C84.5805 26.9446 81.0813 23.625 76.7648 23.625C72.4484 23.625 68.9492 26.9446 68.9492 31.0396C68.9492 35.1346 72.4484 38.4542 76.7648 38.4542Z" fill="#9CD43D"/>
<path d="M21.7859 38.4542C26.1023 38.4542 29.6015 35.1346 29.6015 31.0396C29.6015 26.9446 26.1023 23.625 21.7859 23.625C17.4694 23.625 13.9702 26.9446 13.9702 31.0396C13.9702 35.1346 17.4694 38.4542 21.7859 38.4542Z" fill="#9CD43D"/>
<path d="M52.6293 77.9922C52.3674 77.9911 52.1165 77.8872 51.9306 77.7028L47.4788 73.2121C47.3152 73.0212 47.2298 72.7756 47.2395 72.5245C47.2492 72.2733 47.3534 72.0351 47.5311 71.8573C47.7089 71.6796 47.9472 71.5755 48.1984 71.5658C48.4496 71.5561 48.6952 71.6415 48.8862 71.805L53.338 76.2458C53.4316 76.3386 53.5058 76.4489 53.5565 76.5706C53.6072 76.6922 53.6333 76.8226 53.6333 76.9543C53.6333 77.0861 53.6072 77.2165 53.5565 77.3381C53.5058 77.4597 53.4316 77.5701 53.338 77.6629C53.2481 77.7626 53.139 77.8432 53.0172 77.8998C52.8955 77.9564 52.7635 77.9878 52.6293 77.9922Z" fill="#49B236"/>
<path d="M48.1874 77.9927C48.056 77.9934 47.9258 77.9683 47.8042 77.9186C47.6825 77.8689 47.5719 77.7958 47.4786 77.7033C47.3851 77.6105 47.3108 77.5001 47.2602 77.3785C47.2095 77.2569 47.1834 77.1265 47.1834 76.9948C47.1834 76.863 47.2095 76.7326 47.2602 76.611C47.3108 76.4894 47.3851 76.379 47.4786 76.2862L51.9305 71.8454C52.1214 71.6819 52.3671 71.5965 52.6183 71.6062C52.8695 71.6159 53.1078 71.72 53.2856 71.8978C53.4633 72.0755 53.5675 72.3137 53.5772 72.5649C53.5869 72.816 53.5014 73.0616 53.3379 73.2525L48.8861 77.7033C48.7001 77.8876 48.4492 77.9916 48.1874 77.9927Z" fill="#49B236"/>
</g>
<defs>
<clipPath id="clip0_33_3190">
<rect width="90.3641" height="85.7221" fill="white" transform="translate(0.724426 0.333374)"/>
</clipPath>
</defs>
</svg>
