<svg width="88" height="99" viewBox="0 0 88 99" fill="none" xmlns="http://www.w3.org/2000/svg">
<g clip-path="url(#clip0_33_3174)">
<path d="M94.299 62.559C94.299 62.559 100.897 72.5891 95.7899 77.4637C90.6825 82.3382 85.7161 71.3353 85.7161 71.3353L82.0895 65.0966L88.3051 54.0636C90.4657 56.7781 92.467 59.6146 94.299 62.559Z" fill="#EFD565"/>
<path d="M33.9265 92.89H15.1388C13.7033 92.89 12.5397 94.0463 12.5397 95.4727C12.5397 96.8992 13.7033 98.0555 15.1388 98.0555H33.9265C35.3619 98.0555 36.5255 96.8992 36.5255 95.4727C36.5255 94.0463 35.3619 92.89 33.9265 92.89Z" fill="#FFBB4D"/>
<path d="M87.3179 92.89H69.0641C67.6286 92.89 66.465 94.0463 66.465 95.4727C66.465 96.8992 67.6286 98.0555 69.0641 98.0555H87.3179C88.7533 98.0555 89.9169 96.8992 89.9169 95.4727C89.9169 94.0463 88.7533 92.89 87.3179 92.89Z" fill="#FFBB4D"/>
<path d="M33.0097 13.3919C43.7712 10.328 55.1796 10.328 65.9411 13.3919H66.0419C70.7619 14.7241 75.0452 17.2731 78.459 20.7812C81.8728 24.2894 84.2962 28.6325 85.4844 33.3717C87.7409 42.3988 90.0176 71.5661 90.0176 80.2019C90.0176 80.2019 91.1459 98.0754 49.5611 98.0754C7.97624 98.0754 9.26569 80.2019 9.26569 80.2019C9.26569 80.2019 9.26563 67.7346 9.588 62.3284C10.0974 52.6124 11.4456 42.958 13.6175 33.4721C14.7887 28.7224 17.2001 24.3653 20.6074 20.8425C24.0147 17.3196 28.2968 14.7562 33.0198 13.412L33.0097 13.3919Z" fill="#F2F2F2"/>
<path d="M33.0097 13.3919C43.7712 10.328 55.1796 10.328 65.9411 13.3919H66.0419C70.7619 14.7241 75.0452 17.2731 78.459 20.7812C81.8728 24.2894 84.2962 28.6325 85.4844 33.3717C87.7409 42.3988 90.0176 71.5661 90.0176 80.2019C90.0176 80.2019 91.1459 98.0754 49.5611 98.0754C7.97624 98.0754 9.26569 80.2019 9.26569 80.2019C9.26569 80.2019 9.26563 67.7346 9.588 62.3284C10.0974 52.6124 11.4456 42.958 13.6175 33.4721C14.7887 28.7224 17.2001 24.3653 20.6074 20.8425C24.0147 17.3196 28.2968 14.7562 33.0198 13.412L33.0097 13.3919Z" fill="#FFE36C"/>
<path d="M73.5772 44.4148C76.0474 44.4148 78.0499 42.421 78.0499 39.9615C78.0499 37.502 76.0474 35.5082 73.5772 35.5082C71.1069 35.5082 69.1044 37.502 69.1044 39.9615C69.1044 42.421 71.1069 44.4148 73.5772 44.4148Z" fill="black"/>
<path d="M37.6638 44.4148C40.134 44.4148 42.1366 42.421 42.1366 39.9615C42.1366 37.502 40.134 35.5082 37.6638 35.5082C35.1935 35.5082 33.191 37.502 33.191 39.9615C33.191 42.421 35.1935 44.4148 37.6638 44.4148Z" fill="black"/>
<path d="M3.97698 64.6853C3.97698 64.6853 -2.61134 74.7153 2.50618 79.5999C7.62369 84.4845 12.58 73.4515 12.58 73.4515L16.1865 67.2028L9.95076 56.1698C7.7958 58.8909 5.8012 61.7342 3.97698 64.6853Z" fill="#FFE36C"/>
<path d="M60.0681 90.1217C59.9355 90.1224 59.804 90.0971 59.6813 90.0472C59.5586 89.9973 59.4469 89.9237 59.3528 89.8308L54.8699 85.3173C54.7049 85.1254 54.6187 84.8786 54.6285 84.6262C54.6383 84.3737 54.7433 84.1343 54.9227 83.9556C55.1021 83.777 55.3427 83.6724 55.5962 83.6626C55.8497 83.6529 56.0977 83.7387 56.2904 83.903L60.7833 88.3664C60.8777 88.4597 60.9527 88.5706 61.0038 88.6928C61.055 88.815 61.0813 88.9461 61.0813 89.0785C61.0813 89.2109 61.055 89.342 61.0038 89.4643C60.9527 89.5865 60.8777 89.6974 60.7833 89.7907C60.6925 89.8909 60.5824 89.9719 60.4595 90.0288C60.3366 90.0856 60.2035 90.1172 60.0681 90.1217Z" fill="#FFBB4D"/>
<path d="M55.5851 90.1217C55.385 90.1228 55.1892 90.0646 55.0224 89.9545C54.8557 89.8444 54.7256 89.6873 54.6489 89.5033C54.5722 89.3193 54.5522 89.1167 54.5916 88.9214C54.6309 88.7261 54.7278 88.5468 54.8699 88.4065L59.3527 83.9432C59.4464 83.8492 59.5578 83.7745 59.6806 83.7236C59.8033 83.6727 59.935 83.6465 60.068 83.6465C60.201 83.6465 60.3327 83.6727 60.4554 83.7236C60.5782 83.7745 60.6896 83.8492 60.7832 83.9432C60.9708 84.1311 61.0762 84.3853 61.0762 84.6503C61.0762 84.9153 60.9708 85.1695 60.7832 85.3574L56.2903 89.8308C56.1027 90.0161 55.8494 90.1206 55.5851 90.1217Z" fill="#FFBB4D"/>
<path d="M31.4684 59.3794C35.2962 59.3794 38.3992 56.2899 38.3992 52.4788C38.3992 48.6677 35.2962 45.5781 31.4684 45.5781C27.6406 45.5781 24.5376 48.6677 24.5376 52.4788C24.5376 56.2899 27.6406 59.3794 31.4684 59.3794Z" fill="#FFA052"/>
<path d="M79.4703 59.3794C83.2981 59.3794 86.4011 56.2899 86.4011 52.4788C86.4011 48.6677 83.2981 45.5781 79.4703 45.5781C75.6425 45.5781 72.5395 48.6677 72.5395 52.4788C72.5395 56.2899 75.6425 59.3794 79.4703 59.3794Z" fill="#FFA052"/>
<path d="M62.3447 52.3685H51.2635C49.7458 52.3632 48.292 51.7599 47.2198 50.6905C46.1476 49.6211 45.5442 48.1725 45.5415 46.6614C45.5415 43.5321 53.6611 41.4358 56.8142 41.4358C59.9572 41.4358 68.0767 43.5321 68.0767 46.6614C68.0741 48.1742 67.4694 49.6243 66.395 50.694C65.3206 51.7637 63.8641 52.3659 62.3447 52.3685Z" fill="#FFBB4D"/>
<path d="M48.201 11.095C48.201 11.095 48.6241 4.86637 52.5025 0.784155C52.5949 0.688279 52.7127 0.620473 52.8422 0.588608C52.9718 0.556743 53.1078 0.562127 53.2344 0.604142C53.361 0.646157 53.473 0.723069 53.5575 0.825952C53.6419 0.928835 53.6953 1.05346 53.7114 1.18535C54.1229 4.10643 55.0253 6.93769 56.3809 9.56042C56.7978 10.2078 57.3487 10.7592 57.9967 11.1778C58.6446 11.5964 59.3748 11.8725 60.1385 11.9877" fill="#FFE36C"/>
<path d="M55.3133 11.3659C52.2494 9.19883 49.6897 6.40062 47.8082 3.16134C47.7444 3.04294 47.6477 2.94529 47.5297 2.87998C47.4117 2.81466 47.2774 2.78444 47.1427 2.79289C47.008 2.80134 46.8786 2.84812 46.7697 2.92765C46.6609 3.00719 46.5774 3.11614 46.5289 3.24158C46.053 4.87267 45.7922 6.5585 45.7532 8.25659C45.7063 9.06221 45.379 9.82638 44.8274 10.4177C44.2758 11.0089 43.5345 11.3903 42.731 11.4963" fill="#FFE36C"/>
</g>
<defs>
<clipPath id="clip0_33_3174">
<rect width="97.1723" height="97.4818" fill="white" transform="translate(0.561768 0.573486)"/>
</clipPath>
</defs>
</svg>
