<svg width="94" height="102" viewBox="0 0 94 102" fill="none" xmlns="http://www.w3.org/2000/svg">
<g clip-path="url(#clip0_33_3153)">
<path d="M89.9694 67.0346C89.9694 67.0346 96.2735 76.6478 91.3938 81.3197C86.5141 85.9917 81.7691 75.4461 81.7691 75.4461L78.3042 69.4668L84.2426 58.8923C86.307 61.494 88.2191 64.2126 89.9694 67.0346Z" fill="#EFEFEF"/>
<path d="M14.4348 92.4897H27.6206V94.47C27.6206 96.2165 26.926 97.8914 25.6896 99.1263C24.4532 100.361 22.7762 101.055 21.0277 101.055C19.2791 101.055 17.6022 100.361 16.3658 99.1263C15.1294 97.8914 14.4348 96.2165 14.4348 94.47V92.4897Z" fill="white"/>
<path d="M68.6122 92.4897H81.49V94.6239C81.49 96.3295 80.8116 97.9653 79.6041 99.1714C78.3966 100.377 76.7588 101.055 75.0511 101.055C73.3434 101.055 71.7056 100.377 70.4981 99.1714C69.2906 97.9653 68.6122 96.3295 68.6122 94.6239V92.4897Z" fill="#EFEFEF"/>
<path d="M31.4126 19.9109C41.6975 16.974 52.6005 16.974 62.8853 19.9109H62.972C67.4829 21.185 71.5767 23.6271 74.8388 26.9899C78.1008 30.3527 80.4152 34.5167 81.5476 39.0602C83.7132 47.712 85.8788 75.667 85.8788 83.9439C85.8788 83.9439 86.9567 101.074 47.226 101.074C7.49523 101.074 8.72719 83.9439 8.72719 83.9439C8.72719 83.9439 8.72718 71.9947 9.04479 66.8133C9.52626 57.5006 10.8144 48.247 12.8947 39.1564C14.0172 34.6058 16.3224 30.4317 19.5772 27.0559C22.8321 23.6801 26.9213 21.222 31.4318 19.9301L31.4126 19.9109Z" fill="#F2F2F2"/>
<path d="M31.4126 19.9109C41.6975 16.974 52.6005 16.974 62.8853 19.9109H62.972C67.4829 21.185 71.5767 23.6271 74.8388 26.9899C78.1008 30.3527 80.4152 34.5167 81.5476 39.0602C83.7132 47.712 85.8788 75.667 85.8788 83.9439C85.8788 83.9439 86.9567 101.074 47.226 101.074C7.49523 101.074 8.72719 83.9439 8.72719 83.9439C8.72719 83.9439 8.72718 71.9947 9.04479 66.8133C9.52626 57.5006 10.8144 48.247 12.8947 39.1564C14.0172 34.6058 16.3224 30.4317 19.5772 27.0559C22.8321 23.6801 26.9213 21.222 31.4318 19.9301L31.4126 19.9109Z" fill="white"/>
<path d="M32.3173 51.5674H27.9959C25.6251 51.5674 23.7032 53.4869 23.7032 55.8548V55.8644C23.7032 58.2323 25.6251 60.1519 27.9959 60.1519H32.3173C34.6881 60.1519 36.61 58.2323 36.61 55.8644V55.8548C36.61 53.4869 34.6881 51.5674 32.3173 51.5674Z" fill="#FFD2D2"/>
<path d="M77.8229 51.5674H73.5014C71.1307 51.5674 69.2088 53.4869 69.2088 55.8548V55.8644C69.2088 58.2323 71.1307 60.1519 73.5014 60.1519H77.8229C80.1936 60.1519 82.1155 58.2323 82.1155 55.8644V55.8548C82.1155 53.4869 80.1936 51.5674 77.8229 51.5674Z" fill="#FFD2D2"/>
<path d="M70.1713 49.6446C72.5315 49.6446 74.4447 47.7336 74.4447 45.3764C74.4447 43.0191 72.5315 41.1082 70.1713 41.1082C67.8112 41.1082 65.898 43.0191 65.898 45.3764C65.898 47.7336 67.8112 49.6446 70.1713 49.6446Z" fill="black"/>
<path d="M35.8593 49.6446C38.2194 49.6446 40.1326 47.7336 40.1326 45.3764C40.1326 43.0191 38.2194 41.1082 35.8593 41.1082C33.4992 41.1082 31.5859 43.0191 31.5859 45.3764C31.5859 47.7336 33.4992 49.6446 35.8593 49.6446Z" fill="black"/>
<path d="M38.7851 21.1991C39.4506 21.022 40.0221 20.5954 40.3806 20.0081C40.7392 19.4208 40.8572 18.718 40.7101 18.046C39.5455 12.7396 36.1865 1.05001 29.4781 2.01132C21.557 3.14567 25.6282 16.2195 27.6301 21.5259C27.8758 22.1276 28.3262 22.6233 28.9019 22.9258C29.4777 23.2283 30.1419 23.3181 30.7774 23.1794L38.7851 21.1991Z" fill="#FFD2D2"/>
<path d="M30.2096 25.6502C29.1688 25.6521 28.1518 25.339 27.2927 24.7521C26.4336 24.1652 25.7727 23.3321 25.3973 22.3625C23.0873 16.2293 20.9218 7.9428 23.7514 3.13624C24.3217 2.17661 25.1069 1.36209 26.0454 0.756624C26.984 0.151156 28.0502 -0.228767 29.1605 -0.353308C35.3973 -1.25694 40.3444 5.10694 43.0779 17.5367C43.3674 18.8259 43.1383 20.1772 42.4397 21.2993C41.7412 22.4214 40.6292 23.2244 39.3435 23.5353L31.3742 25.5156C30.9927 25.6061 30.6018 25.6513 30.2096 25.6502ZM30.2096 4.36672C30.0782 4.35719 29.9464 4.35719 29.815 4.36672C29.4233 4.39273 29.0436 4.51297 28.7084 4.71718C28.3733 4.92139 28.0925 5.20352 27.8901 5.53952C26.5041 7.88512 27.2741 13.6722 29.9016 20.6417C29.9363 20.6944 29.9834 20.7377 30.0388 20.7678C30.0942 20.798 30.1562 20.8141 30.2192 20.8148L38.1789 18.8345C38.2454 18.8184 38.3032 18.7777 38.3408 18.7205C38.3783 18.6634 38.3927 18.5942 38.381 18.5268C36.9373 11.9419 33.944 4.36672 30.2481 4.36672H30.2096Z" fill="white"/>
<path d="M56.947 21.7663C56.2789 21.5934 55.7044 21.1677 55.3451 20.5792C54.9858 19.9906 54.87 19.2856 55.022 18.6132C56.1866 13.3068 59.536 1.62682 66.254 2.57852C74.1656 3.71287 70.1039 16.7867 68.102 22.0931C67.8713 22.706 67.4233 23.2129 66.8432 23.5176C66.263 23.8224 65.591 23.9039 64.9547 23.7466L56.947 21.7663Z" fill="#FFD2D2"/>
<path d="M65.5612 26.2268C65.1457 26.2272 64.7318 26.1755 64.3292 26.073L56.3696 24.0927C55.082 23.7839 53.9677 22.9818 53.2673 21.8594C52.5668 20.7371 52.3363 19.3847 52.6256 18.0941C55.3686 5.66432 60.3253 -0.689946 66.5525 0.204074C67.6619 0.327145 68.7275 0.70656 69.6647 1.31225C70.6018 1.91793 71.385 2.73325 71.952 3.69364C74.7912 8.5002 72.6257 16.7963 70.3158 22.9199C69.9538 23.8885 69.3048 24.7239 68.4553 25.3147C67.6059 25.9055 66.5963 26.2237 65.5612 26.2268ZM65.4745 4.93374C61.769 4.93374 58.7854 12.48 57.3224 19.1323C57.3107 19.1971 57.324 19.2639 57.3597 19.3193C57.3955 19.3746 57.451 19.4143 57.5149 19.4303L65.4842 21.4106C65.548 21.4268 65.6155 21.4191 65.674 21.389C65.7325 21.3589 65.7779 21.3085 65.8018 21.2472C68.4293 14.2681 69.1897 8.48097 67.8037 6.14499C67.605 5.80498 67.3253 5.51918 66.9895 5.31293C66.6538 5.10668 66.2723 4.98635 65.8788 4.96258C65.745 4.94243 65.6098 4.93279 65.4745 4.93374Z" fill="white"/>
<path d="M59.1703 66.7942H46.8699C38.4288 66.7942 31.5859 73.6267 31.5859 82.055C31.5859 90.4833 38.4288 97.3158 46.8699 97.3158H59.1703C67.6114 97.3158 74.4543 90.4833 74.4543 82.055C74.4543 73.6267 67.6114 66.7942 59.1703 66.7942Z" fill="#F4F4F4"/>
<path d="M3.67427 69.0725C3.67427 69.0725 -2.6203 78.6856 2.26904 83.3672C7.15839 88.0488 11.8937 77.4744 11.8937 77.4744L15.3394 71.4854L9.38171 60.911C7.32283 63.519 5.41715 66.2441 3.67427 69.0725Z" fill="white"/>
<path d="M57.2646 93.4514C57.1379 93.4522 57.0123 93.4279 56.8951 93.3801C56.7778 93.3322 56.6711 93.2617 56.5812 93.1726L52.2982 88.8467C52.1405 88.6628 52.0581 88.4263 52.0675 88.1843C52.0768 87.9424 52.1773 87.7129 52.3487 87.5417C52.5201 87.3705 52.7499 87.2702 52.9921 87.2608C53.2343 87.2515 53.4712 87.3338 53.6553 87.4913L57.9479 91.7691C58.0381 91.8585 58.1097 91.9648 58.1586 92.082C58.2074 92.1991 58.2326 92.3248 58.2326 92.4517C58.2326 92.5786 58.2074 92.7042 58.1586 92.8214C58.1097 92.9385 58.0381 93.0448 57.9479 93.1342C57.8612 93.2302 57.756 93.3079 57.6386 93.3624C57.5212 93.4169 57.394 93.4472 57.2646 93.4514Z" fill="#FFD2D2"/>
<path d="M52.9623 93.4514C52.8357 93.4521 52.7101 93.4279 52.5928 93.38C52.4756 93.3322 52.3689 93.2617 52.279 93.1726C52.1888 93.0833 52.1172 92.977 52.0683 92.8598C52.0194 92.7427 51.9943 92.617 51.9943 92.4901C51.9943 92.3632 52.0194 92.2375 52.0683 92.1204C52.1172 92.0033 52.1888 91.8969 52.279 91.8075L56.562 87.5297C56.6514 87.4396 56.7579 87.3681 56.8752 87.3193C56.9925 87.2705 57.1183 87.2454 57.2454 87.2454C57.3724 87.2454 57.4982 87.2705 57.6155 87.3193C57.7328 87.3681 57.8392 87.4396 57.9287 87.5297C58.108 87.7098 58.2086 87.9535 58.2086 88.2074C58.2086 88.4614 58.108 88.7051 57.9287 88.8852L53.6361 93.1726C53.4568 93.3502 53.2148 93.4504 52.9623 93.4514Z" fill="#FFD2D2"/>
<path d="M54.6949 50.923L49.8055 48.4717C49.6924 48.4142 49.5917 48.3351 49.5092 48.2388C49.4267 48.1425 49.364 48.0309 49.3247 47.9104C49.2452 47.667 49.2659 47.4021 49.382 47.1739C49.4982 46.9457 49.7003 46.7729 49.944 46.6936C50.1877 46.6143 50.4529 46.6349 50.6814 46.7509L54.7045 48.7985L59.0933 46.6163C59.3231 46.5029 59.5885 46.4852 59.8313 46.5673C60.0741 46.6493 60.2743 46.8243 60.3879 47.0537C60.5015 47.2832 60.5191 47.5483 60.437 47.7908C60.3549 48.0333 60.1797 48.2332 59.95 48.3467L54.6949 50.923Z" fill="#FFD2D2"/>
<path d="M51.8363 56.5277C50.8444 56.5491 49.879 56.2072 49.1222 55.5664C48.9282 55.4007 48.808 55.1648 48.7882 54.9106C48.7683 54.6564 48.8504 54.4047 49.0163 54.211C49.1822 54.0172 49.4184 53.8972 49.6729 53.8774C49.9274 53.8575 50.1794 53.9395 50.3734 54.1052C50.7865 54.4364 51.3073 54.6041 51.8363 54.5763C52.0855 54.606 52.3383 54.581 52.5769 54.503C52.8154 54.425 53.034 54.2958 53.2174 54.1246C53.4007 53.9534 53.5444 53.7442 53.6383 53.5117C53.7323 53.2792 53.7742 53.029 53.7612 52.7786V49.8178C53.7612 49.5628 53.8626 49.3183 54.0431 49.138C54.2236 48.9577 54.4684 48.8564 54.7237 48.8564C54.979 48.8564 55.2238 48.9577 55.4043 49.138C55.5848 49.3183 55.6862 49.5628 55.6862 49.8178V52.7882C55.6689 53.4205 55.5111 54.0411 55.2242 54.6051C54.9066 55.2189 54.4174 55.7273 53.816 56.0687C53.2145 56.41 52.5268 56.5694 51.8363 56.5277Z" fill="#FFD2D2"/>
<path d="M57.7746 56.5274C57.265 56.5532 56.7554 56.4776 56.2753 56.3049C55.7952 56.1322 55.3543 55.8659 54.9781 55.5216C54.602 55.1772 54.2981 54.7616 54.0842 54.2989C53.8704 53.8362 53.7507 53.3356 53.7322 52.8263C53.7322 52.5713 53.8336 52.3268 54.0141 52.1466C54.1946 51.9663 54.4394 51.865 54.6947 51.865C54.95 51.865 55.1948 51.9663 55.3753 52.1466C55.5558 52.3268 55.6572 52.5713 55.6572 52.8263C55.66 53.0902 55.7192 53.3504 55.8308 53.5896C55.9424 53.8288 56.1038 54.0415 56.3042 54.2134C56.5046 54.3854 56.7394 54.5127 56.993 54.5868C57.2465 54.6609 57.513 54.6801 57.7746 54.6432C58.3031 54.6794 58.8257 54.5145 59.2375 54.1818C59.3317 54.0972 59.4417 54.032 59.5611 53.9898C59.6805 53.9477 59.807 53.9294 59.9335 53.9361C60.0599 53.9428 60.1838 53.9743 60.2981 54.0288C60.4124 54.0833 60.5148 54.1598 60.5995 54.2539C60.6841 54.3479 60.7494 54.4577 60.7916 54.577C60.8338 54.6962 60.8521 54.8226 60.8454 54.9489C60.8387 55.0752 60.8072 55.199 60.7526 55.3131C60.698 55.4272 60.6214 55.5295 60.5273 55.6141C59.7586 56.2556 58.7748 56.582 57.7746 56.5274Z" fill="#FFD2D2"/>
</g>
<defs>
<clipPath id="clip0_33_3153">
<rect width="92.8398" height="101.505" fill="white" transform="translate(0.411285 -0.449463)"/>
</clipPath>
</defs>
</svg>
