<svg width="73" height="85" viewBox="0 0 73 85" fill="none" xmlns="http://www.w3.org/2000/svg">
<g clip-path="url(#clip0_33_3205)">
<path d="M69.7718 51.4871C69.7718 51.4871 75.8532 60.6896 71.1459 65.1621C66.4386 69.6345 61.8613 59.5393 61.8613 59.5393L58.5281 53.8153L64.2567 43.6925C66.2449 46.1833 68.0864 48.7858 69.7718 51.4871Z" fill="#EFEFEF"/>
<path d="M47.9158 75.7083H60.4315V77.8617C60.4315 79.5067 59.7722 81.0843 58.5986 82.2475C57.425 83.4107 55.8333 84.0642 54.1736 84.0642C52.5139 84.0642 50.9222 83.4107 49.7487 82.2475C48.5751 81.0843 47.9158 79.5067 47.9158 77.8617V75.7083Z" fill="#EFEFEF"/>
<path d="M0.833309 75.7083H13.3954V77.8248C13.3954 78.6442 13.2326 79.4555 12.9162 80.2125C12.5999 80.9695 12.1362 81.6573 11.5517 82.2367C10.9671 82.8161 10.2732 83.2757 9.50941 83.5892C8.74567 83.9028 7.9271 84.0642 7.10043 84.0642C5.43573 84.0569 3.84173 83.3963 2.66721 82.227C1.49269 81.0577 0.833293 79.4749 0.833309 77.8248V75.7083Z" fill="black"/>
<path d="M47.0243 14.8979C47.0243 14.8979 63.4674 2.0695 69.1867 9.11866C75.7603 17.2077 54.4428 26.217 54.4428 26.217L47.0243 14.8979Z" fill="#FFCACA"/>
<path d="M64.266 10.7106C65.6866 10.7106 66.123 11.2076 66.2901 11.4468C66.4709 11.6094 66.6029 11.8183 66.6717 12.0505C66.7405 12.2826 66.7434 12.5291 66.68 12.7628C66.2529 14.4745 62.5391 18.2199 55.8077 21.5696L52.0939 15.864C55.8541 13.3794 60.9793 10.7106 64.2939 10.7106H64.266ZM64.2939 7.02959C57.1726 7.02959 47.0523 14.9254 47.0523 14.9254L54.48 26.2445C54.48 26.2445 75.8347 17.2352 69.224 9.14618C68.6268 8.43791 67.8708 7.87772 67.0165 7.51024C66.1622 7.14277 65.233 6.97817 64.3032 7.02959H64.2939Z" fill="black"/>
<path d="M52.8088 10.9683C54.4794 8.59838 55.7582 5.97961 56.5969 3.21059C56.71 2.85495 56.7114 2.47366 56.601 2.1172C56.4906 1.76074 56.2735 1.44593 55.9786 1.21445C55.6836 0.982981 55.3247 0.845767 54.9493 0.82097C54.574 0.796173 54.1999 0.884963 53.8765 1.07559C50.9803 2.7147 48.3223 4.73628 45.9753 7.08486C41.8251 11.5481 52.8088 10.9683 52.8088 10.9683Z" fill="#FFC145"/>
<path d="M49.262 81.8373C46.5937 82.5135 43.8827 83.0115 41.1472 83.3281C36.9638 83.8303 32.7526 84.07 28.5387 84.0459C24.8769 84.0618 21.2167 83.8867 17.5735 83.5214C-9.55617 80.7606 -8.63699 67.6469 -8.63699 67.6469C-8.63699 67.6469 -8.637 56.2082 -8.33989 51.248C-7.87544 42.333 -6.63284 33.4747 -4.62604 24.7722C-3.54313 20.416 -1.31943 16.4202 1.82042 13.1885C4.96026 9.95689 8.90502 7.60383 13.2562 6.3671C19.5848 4.56312 26.1882 3.89616 32.7539 4.39776C36.4399 4.6762 40.0885 5.32054 43.6447 6.32109H43.7376C48.0879 7.54336 52.0356 9.882 55.182 13.1007C58.3283 16.3195 60.5619 20.3043 61.6569 24.6526C62.377 27.9495 62.9163 31.2826 63.2725 34.6374C64.7023 45.9933 65.8257 61.8861 65.8257 67.6838C65.8257 67.6562 66.4385 77.3649 49.262 81.8373Z" fill="white"/>
<path d="M41.1472 83.3374C36.9638 83.8395 32.7526 84.0793 28.5387 84.0552C24.8769 84.0711 21.2167 83.896 17.5735 83.5306C-9.55617 80.7698 -8.63699 67.6562 -8.63699 67.6562C-8.63699 67.6562 -8.637 56.2174 -8.33989 51.2572C-8.33989 51.2572 12.0027 48.8554 16.1994 63.8003C16.5433 65.0906 17.0618 66.3288 17.7406 67.4813C23.3578 76.8772 36.5699 69.3679 41.0543 83.0061C41.0943 83.1138 41.1253 83.2246 41.1472 83.3374Z" fill="black"/>
<path d="M63.2724 34.6376C54.7956 30.6621 55.5105 18.4871 45.0374 18.4871C32.531 18.4871 32.726 4.43481 32.726 4.43481C36.4121 4.71326 40.0606 5.35761 43.6169 6.35816H43.7097C48.06 7.58044 52.0077 9.91908 55.1541 13.1378C58.3005 16.3566 60.534 20.3414 61.6291 24.6897C62.3572 27.9739 62.9058 31.2947 63.2724 34.6376Z" fill="black"/>
<path d="M50.6641 69.285V76.7942C50.6659 78.57 50.1814 80.313 49.2621 81.8373C42.4763 83.4387 35.513 84.1808 28.5389 84.0459C24.877 84.0618 21.2169 83.8867 17.5737 83.5213V69.285C17.5723 68.6829 17.6283 68.0821 17.7408 67.4905C18.1709 65.2076 19.3912 63.145 21.1912 61.6583C22.9911 60.1715 25.2581 59.3539 27.6011 59.3462H40.5996C43.2632 59.3437 45.819 60.3889 47.7059 62.2522C49.5928 64.1156 50.6567 66.6449 50.6641 69.285Z" fill="#FFCACA"/>
<path d="M50.6735 34.8397C52.9502 34.8397 54.7958 33.0104 54.7958 30.7538C54.7958 28.4972 52.9502 26.6678 50.6735 26.6678C48.3967 26.6678 46.5511 28.4972 46.5511 30.7538C46.5511 33.0104 48.3967 34.8397 50.6735 34.8397Z" fill="black"/>
<path d="M17.5737 34.8397C19.8504 34.8397 21.6961 33.0104 21.6961 30.7538C21.6961 28.4972 19.8504 26.6678 17.5737 26.6678C15.297 26.6678 13.4513 28.4972 13.4513 30.7538C13.4513 33.0104 15.297 34.8397 17.5737 34.8397Z" fill="black"/>
<path d="M47.9158 41.4565C47.9158 36.5147 43.6078 30.7539 34.1003 30.7539C24.5928 30.7539 20.4519 36.5147 20.4519 41.4565C20.4519 46.3983 24.6021 48.6437 34.1003 48.6437C43.5985 48.6437 47.9158 46.3891 47.9158 41.4565Z" fill="#FFCACA"/>
<path d="M31.3706 41.1435C32.1551 41.1435 32.7911 40.2906 32.7911 39.2385C32.7911 38.1865 32.1551 37.3336 31.3706 37.3336C30.586 37.3336 29.95 38.1865 29.95 39.2385C29.95 40.2906 30.586 41.1435 31.3706 41.1435Z" fill="black"/>
<path d="M39.6433 41.1435C40.4278 41.1435 41.0638 40.2906 41.0638 39.2385C41.0638 38.1865 40.4278 37.3336 39.6433 37.3336C38.8587 37.3336 38.2227 38.1865 38.2227 39.2385C38.2227 40.2906 38.8587 41.1435 39.6433 41.1435Z" fill="black"/>
<path d="M5.38278 12.3211C3.2998 9.54922 1.65894 6.47652 0.51765 3.21059C0.404577 2.85495 0.40315 2.47366 0.51357 2.1172C0.623989 1.76074 0.841036 1.44593 1.13598 1.21445C1.43092 0.982981 1.78985 0.845767 2.16523 0.82097C2.5406 0.796173 2.91471 0.884963 3.23804 1.07559C5.68918 2.5204 7.68537 3.47747 9.94154 5.89774C14.0918 10.3702 5.38278 12.3211 5.38278 12.3211Z" fill="#FFC145"/>
<path d="M6.15341 18.137C6.65958 17.5088 7.0332 16.7861 7.25209 16.012C7.47098 15.2378 7.53067 14.428 7.42761 13.6305C7.32454 12.833 7.06084 12.0642 6.65215 11.3698C6.24346 10.6753 5.69812 10.0693 5.04853 9.58782C0.0626888 5.90679 -7.56927 1.54478 -11.6638 5.66753C-16.6032 10.6645 -8.98982 17.2996 -3.49332 21.091C-2.23023 21.9648 -0.678954 22.3293 0.845461 22.1105C2.36987 21.8917 3.75313 21.1061 4.71429 19.9131L6.15341 18.137Z" fill="#FFCACA"/>
<path d="M-7.39281 7.67393C-5.07165 7.67393 -1.34852 9.45003 2.82028 12.5329C3.07165 12.7189 3.28254 12.9532 3.44034 13.2219C3.59813 13.4906 3.69957 13.7881 3.73859 14.0966C3.7776 14.4051 3.75338 14.7182 3.66738 15.0172C3.58138 15.3162 3.43536 15.5949 3.23809 15.8366L1.81754 17.6127C1.5956 17.8889 1.31295 18.1113 0.991138 18.2628C0.669328 18.4143 0.316861 18.491 -0.0393848 18.487C-0.517622 18.4899 -0.984915 18.3451 -1.37637 18.0728C-7.17927 14.0697 -9.39829 10.9777 -9.54685 9.40402C-9.54685 9.17395 -9.60255 8.83346 -9.01762 8.2445C-8.81125 8.03732 -8.56071 7.87854 -8.28438 7.77981C-8.00805 7.68108 -7.71293 7.64491 -7.42066 7.67393H-7.39281ZM-7.42066 3.99291C-8.20774 3.96581 -8.99194 4.10064 -9.72383 4.38891C-10.4557 4.67717 -11.1194 5.11262 -11.673 5.66778C-16.6124 10.6648 -8.99905 17.2998 -3.50255 21.0913C-2.23872 21.9629 -0.688037 22.3261 0.835738 22.1074C2.35951 21.8887 3.74258 21.1045 4.70506 19.9133L6.12561 18.1373C6.63178 17.509 7.0054 16.7864 7.22429 16.0122C7.44318 15.2381 7.50287 14.4282 7.39981 13.6307C7.29674 12.8333 7.03304 12.0645 6.62435 11.37C6.21566 10.6755 5.67032 10.0696 5.02073 9.58807C1.47401 6.95613 -3.41899 3.99291 -7.42066 3.99291Z" fill="white"/>
<path d="M38.2227 76.7758C38.1005 76.7765 37.9794 76.7532 37.8663 76.7074C37.7532 76.6616 37.6503 76.5942 37.5635 76.5089L33.4319 72.3677C33.2798 72.1917 33.2003 71.9652 33.2093 71.7336C33.2183 71.502 33.3152 71.2823 33.4805 71.1184C33.6459 70.9545 33.8676 70.8585 34.1012 70.8496C34.3349 70.8406 34.5634 70.9194 34.741 71.0702L38.8727 75.1653C38.9597 75.2509 39.0288 75.3526 39.0759 75.4648C39.123 75.5769 39.1473 75.6972 39.1473 75.8187C39.1473 75.9402 39.123 76.0605 39.0759 76.1726C39.0288 76.2847 38.9597 76.3865 38.8727 76.4721C38.7901 76.5629 38.6901 76.6366 38.5785 76.6887C38.4669 76.7409 38.346 76.7705 38.2227 76.7758Z" fill="#FF8D8D"/>
<path d="M34.0817 76.7757C33.8981 76.775 33.7188 76.7202 33.5665 76.6185C33.4143 76.5168 33.2959 76.3726 33.2263 76.2041C33.1568 76.0357 33.1391 75.8506 33.1757 75.6722C33.2123 75.4939 33.3014 75.3302 33.4318 75.2021L37.5634 71.107C37.7374 70.9356 37.9727 70.8394 38.218 70.8394C38.4633 70.8394 38.6986 70.9356 38.8726 71.107C39.0455 71.2794 39.1425 71.5126 39.1425 71.7557C39.1425 71.9989 39.0455 72.2321 38.8726 72.4045L34.7409 76.5089C34.6542 76.5941 34.5513 76.6616 34.4381 76.7074C34.325 76.7532 34.2039 76.7764 34.0817 76.7757Z" fill="#FF8D8D"/>
<path d="M12.1327 34.84H10.1922C7.90526 34.84 6.0513 36.6755 6.0513 38.9397C6.0513 41.2039 7.90526 43.0394 10.1922 43.0394H12.1327C14.4197 43.0394 16.2737 41.2039 16.2737 38.9397C16.2737 36.6755 14.4197 34.84 12.1327 34.84Z" fill="#FFD2D2"/>
<path d="M57.9711 34.84H56.0306C53.7436 34.84 51.8896 36.6755 51.8896 38.9397C51.8896 41.2039 53.7436 43.0394 56.0306 43.0394H57.9711C60.258 43.0394 62.112 41.2039 62.112 38.9397C62.112 36.6755 60.258 34.84 57.9711 34.84Z" fill="#FFD2D2"/>
</g>
<defs>
<clipPath id="clip0_33_3205">
<rect width="88.8167" height="83.2464" fill="white" transform="translate(-15.8786 0.808838)"/>
</clipPath>
</defs>
</svg>
