<svg xmlns="http://www.w3.org/2000/svg" width="99" height="64" viewBox="0 0 99 64" fill="none">
<g clip-path="url(#clip0_14_861)">
<path d="M13.3712 40.5413C13.3712 40.5413 1.45957 27.7323 0.401924 40.2426C-0.655728 52.7529 11.1184 61.6846 11.1184 61.6846L18.2556 68.5755L23.6908 52.3035C20.2538 47.9921 16.8081 44.0648 13.3712 40.5413Z" fill="#EFD565"/>
<path d="M65.941 13.0604C54.9777 9.93813 43.3552 9.93813 32.3919 13.0604H32.2892C27.4806 14.4179 23.117 17.0153 19.6392 20.5902C16.1613 24.1652 13.6924 28.5909 12.482 33.4204C10.1831 42.6191 7.86375 72.3415 7.86375 81.1416C7.86375 81.1416 6.71429 99.3553 49.0792 99.3553C91.444 99.3553 90.1304 81.1416 90.1304 81.1416C90.1304 81.1416 90.1305 68.4371 89.8021 62.928C89.2831 53.0271 87.9096 43.189 85.6969 33.5226C84.5038 28.6825 82.0471 24.2425 78.5759 20.6527C75.1047 17.0628 70.7423 14.4506 65.9307 13.0808L65.941 13.0604Z" fill="#F2F2F2"/>
<path d="M65.941 13.0604C54.9777 9.93813 43.3552 9.93813 32.3919 13.0604H32.2892C27.4806 14.4179 23.117 17.0153 19.6392 20.5902C16.1613 24.1652 13.6924 28.5909 12.482 33.4204C10.1831 42.6191 7.86375 72.3415 7.86375 81.1416C7.86375 81.1416 6.71428 99.3553 49.0792 99.3553C91.444 99.3553 90.1304 81.1416 90.1304 81.1416C90.1304 81.1416 90.1305 68.4371 89.8021 62.928C89.2831 53.0271 87.9096 43.189 85.6969 33.5226C84.5038 28.6825 82.0471 24.2425 78.5759 20.6527C75.1047 17.0628 70.7423 14.4506 65.9307 13.0808L65.941 13.0604Z" fill="#FFE36C"/>
<path d="M24.6127 44.6742C22.0961 44.6742 20.056 42.6424 20.056 40.1361C20.056 37.6298 22.0961 35.598 24.6127 35.598C27.1293 35.598 29.1694 37.6298 29.1694 40.1361C29.1694 42.6424 27.1293 44.6742 24.6127 44.6742Z" fill="black"/>
<path d="M61.1994 44.6742C58.6829 44.6742 56.6428 42.6424 56.6428 40.1361C56.6428 37.6298 58.6829 35.598 61.1994 35.598C63.716 35.598 65.7561 37.6298 65.7561 40.1361C65.7561 42.6424 63.716 44.6742 61.1994 44.6742Z" fill="black"/>
<path d="M67.5112 59.924C63.6116 59.924 60.4504 56.7757 60.4504 52.892C60.4504 49.0084 63.6116 45.86 67.5112 45.86C71.4108 45.86 74.572 49.0084 74.572 52.892C74.572 56.7757 71.4108 59.924 67.5112 59.924Z" fill="#FFA052"/>
<path d="M18.6089 59.924C14.7093 59.924 11.5481 56.7757 11.5481 52.892C11.5481 49.0084 14.7093 45.86 18.6089 45.86C22.5085 45.86 25.6697 49.0084 25.6697 52.892C25.6697 56.7757 22.5085 59.924 18.6089 59.924Z" fill="#FFA052"/>
<path d="M36.0556 52.78H47.3447C48.8909 52.7746 50.372 52.1598 51.4643 51.07C52.5566 49.9802 53.1713 48.5041 53.174 46.9643C53.174 43.7754 44.9022 41.6392 41.6899 41.6392C38.4879 41.6392 30.2161 43.7754 30.2161 46.9643C30.2188 48.5059 30.8349 49.9836 31.9294 51.0736C33.024 52.1637 34.5077 52.7773 36.0556 52.78Z" fill="#FFBB4D"/>
<path d="M50.4646 10.7189C50.4646 10.7189 50.0335 4.37169 46.0823 0.211789C45.9882 0.114088 45.8682 0.0449921 45.7362 0.012521C45.6043 -0.0199501 45.4657 -0.0144638 45.3367 0.0283508C45.2078 0.0711653 45.0936 0.14954 45.0076 0.254381C44.9216 0.359222 44.8672 0.486219 44.8508 0.620618C44.4316 3.59728 43.5122 6.48242 42.1312 9.15506C41.7065 9.81478 41.1453 10.3767 40.4851 10.8032C39.825 11.2297 39.0811 11.5111 38.3031 11.6285" fill="#FFE36C"/>
<path d="M43.2191 10.9952C46.3405 8.78694 48.9482 5.93549 50.8649 2.63456C50.93 2.51391 51.0285 2.4144 51.1487 2.34785C51.2689 2.28129 51.4057 2.2505 51.543 2.25911C51.6802 2.26772 51.8121 2.31538 51.9229 2.39643C52.0338 2.47748 52.1189 2.5885 52.1683 2.71633C52.6532 4.37846 52.9188 6.09636 52.9585 7.82677C53.0063 8.64772 53.3398 9.42643 53.9017 10.029C54.4636 10.6315 55.2188 11.0202 56.0374 11.1281" fill="#FFE36C"/>
<path d="M93.5592 52.5258C93.5592 52.5258 102.164 61.0188 93.8973 62.7344C85.6306 64.4499 79.593 55.7921 79.593 55.7921L74.9559 50.648L85.6644 45.2146C88.5545 47.6219 91.1905 50.0631 93.5592 52.5258Z" fill="#FFE36C"/>
</g>
<defs>
<clipPath id="clip0_14_861">
<rect width="98.9951" height="64" fill="white" transform="matrix(-1 0 0 1 98.9976 -0.00158691)"/>
</clipPath>
</defs>
</svg>