<svg width="196" height="115" viewBox="0 0 196 115" fill="none" xmlns="http://www.w3.org/2000/svg">
<path d="M63.7191 12.0523C53.1904 13.636 43.3857 17.6697 35.2957 23.7459C31.1669 27.3593 21.975 36.9613 18.2377 46.4624C14.5005 55.9635 12.5952 68.0698 12.1097 72.9352C12.8549 74.9961 15.3178 78.9011 19.2077 78.0347C24.0701 76.9516 24.7287 76.7036 25.9181 74.3131C27.1075 71.9225 30.8375 48.6966 39.327 46.2036C46.1186 44.2092 121.19 53.2589 159.047 58.1499C159.352 65.7447 163.517 83.2024 164.677 86.831C166.126 91.3667 165.567 92.6391 168.276 92.9094C170.985 93.1797 172.48 92.0743 174.986 89.1879C174.852 82.0288 175.1 69.1374 174.094 62.0146C172.425 52.5861 167.993 43.656 161.245 36.1267C154.497 28.5974 145.673 22.7355 135.664 19.1333L135.444 19.1114C127.262 16.1638 118.788 13.9457 110.147 12.4904C94.758 9.88636 79.0342 9.73799 63.7191 12.0523Z" fill="#F1E1CE" stroke="#DEBA99"/>
<path fill-rule="evenodd" clip-rule="evenodd" d="M159.092 68.0886C153.846 65.3051 150.529 59.5353 151.156 53.2476C151.984 44.9532 159.362 38.8985 167.636 39.7242C175.911 40.5498 181.947 47.9431 181.12 56.2376C180.998 57.4518 180.737 58.618 180.353 59.7217C183.204 62.3423 184.83 66.2305 184.415 70.3867C184.23 72.2469 183.654 73.9737 182.777 75.4937C184.656 77.9686 185.64 81.135 185.307 84.4745C185.072 86.825 184.215 88.9626 182.915 90.739C185.849 93.36 187.533 97.3047 187.112 101.526C186.413 108.53 180.182 113.643 173.195 112.946C166.208 112.248 161.11 106.005 161.809 99.0009C162.044 96.6504 162.901 94.5129 164.201 92.7364C161.267 90.1154 159.583 86.1707 160.004 81.9497C160.19 80.0894 160.766 78.3626 161.642 76.8426C159.806 74.4238 158.824 71.3445 159.092 68.0886Z" fill="#F1E1CE"/>
<path d="M159.092 68.0886L159.59 68.1296L159.617 67.8013L159.326 67.6469L159.092 68.0886ZM180.353 59.7217L179.88 59.5574L179.772 59.8676L180.014 60.0899L180.353 59.7217ZM182.777 75.4937L182.344 75.2439L182.178 75.5316L182.379 75.796L182.777 75.4937ZM182.915 90.739L182.511 90.4437L182.243 90.8097L182.582 91.1119L182.915 90.739ZM164.201 92.7364L164.605 93.0317L164.873 92.6657L164.534 92.3635L164.201 92.7364ZM161.642 76.8426L162.076 77.0924L162.241 76.8048L162.041 76.5403L161.642 76.8426ZM150.659 53.198C150.01 59.694 153.438 65.6546 158.858 68.5303L159.326 67.6469C154.254 64.9555 151.047 59.3766 151.654 53.2973L150.659 53.198ZM167.686 39.2267C159.136 38.3735 151.513 44.6299 150.659 53.198L151.654 53.2973C152.454 45.2765 159.589 39.4236 167.587 40.2217L167.686 39.2267ZM181.617 56.2872C182.472 47.7191 176.236 40.0798 167.686 39.2267L167.587 40.2217C175.585 41.0198 181.422 48.1671 180.622 56.1879L181.617 56.2872ZM180.825 59.8861C181.222 58.7456 181.492 57.5408 181.617 56.2872L180.622 56.1879C180.505 57.3628 180.252 58.4905 179.88 59.5574L180.825 59.8861ZM180.014 60.0899C182.754 62.6083 184.316 66.3437 183.918 70.337L184.913 70.4363C185.344 66.1173 183.653 62.0762 180.691 59.3536L180.014 60.0899ZM183.918 70.337C183.739 72.1254 183.186 73.7841 182.344 75.2439L183.21 75.7435C184.122 74.1633 184.72 72.3684 184.913 70.4363L183.918 70.337ZM182.379 75.796C184.184 78.1742 185.13 81.2158 184.809 84.4248L185.804 84.5241C186.151 81.0543 185.127 77.763 183.175 75.1914L182.379 75.796ZM184.809 84.4248C184.584 86.6842 183.76 88.7374 182.511 90.4437L183.318 91.0343C184.67 89.1878 185.561 86.9658 185.804 84.5241L184.809 84.4248ZM182.582 91.1119C185.401 93.6308 187.019 97.4205 186.614 101.476L187.609 101.575C188.047 97.1889 186.296 93.0892 183.248 90.3661L182.582 91.1119ZM186.614 101.476C185.943 108.207 179.956 113.118 173.245 112.448L173.145 113.443C180.408 114.168 186.883 108.853 187.609 101.575L186.614 101.476ZM173.245 112.448C166.533 111.778 161.635 105.781 162.307 99.0506L161.312 98.9513C160.585 106.229 165.882 112.718 173.145 113.443L173.245 112.448ZM162.307 99.0506C162.532 96.7912 163.356 94.738 164.605 93.0317L163.798 92.4411C162.446 94.2877 161.555 96.5096 161.312 98.9513L162.307 99.0506ZM164.534 92.3635C161.715 89.8446 160.097 86.0549 160.502 81.9993L159.507 81.9C159.069 86.2865 160.82 90.3862 163.868 93.1093L164.534 92.3635ZM160.502 81.9993C160.68 80.211 161.234 78.5522 162.076 77.0924L161.209 76.5929C160.298 78.1731 159.7 79.9679 159.507 81.9L160.502 81.9993ZM162.041 76.5403C160.276 74.216 159.333 71.258 159.59 68.1296L158.594 68.0477C158.316 71.4309 159.336 74.6317 161.244 77.145L162.041 76.5403Z" fill="#DEBA99"/>
<path d="M144.207 57.7252C155.836 58.8856 166.242 50.0098 167.451 37.9006C168.659 25.7913 160.212 15.0342 148.583 13.8738L67.6667 5.79959L65.4788 27.7253L63.291 49.651L144.207 57.7252Z" fill="#F1E1CE" stroke="#DEBA99"/>
<ellipse cx="63.0423" cy="27.4829" rx="18.8868" ry="22.0346" transform="rotate(5.69839 63.0423 27.4829)" fill="#F1E1CE" stroke="#DEBA99"/>
<ellipse cx="63.0425" cy="27.4808" rx="13.4906" ry="15.739" transform="rotate(5.69839 63.0425 27.4808)" fill="#EBD0B7"/>
<ellipse cx="62.6723" cy="27.7963" rx="9.10613" ry="10.4927" transform="rotate(5.69839 62.6723 27.7963)" fill="#E3C3A6"/>
<path fill-rule="evenodd" clip-rule="evenodd" d="M41.5944 53.9431C49.0753 52.341 54.7421 47.2548 55.3941 40.721C56.2542 32.1018 48.0615 24.2275 37.0952 23.1332C26.1289 22.0389 16.5418 28.1391 15.6817 36.7583C15.5558 38.0205 15.6239 39.2666 15.8665 40.4779C11.5422 42.4739 8.5164 46.0438 8.08543 50.3628C7.78433 53.3803 8.79718 56.2898 10.7462 58.7279C6.27374 60.6976 3.12689 64.3273 2.68673 68.7383C2.44722 71.1386 3.03908 73.4704 4.27213 75.5511C2.65226 77.3471 1.6113 79.516 1.37179 81.9163C0.645507 89.1947 7.56378 95.8441 16.8242 96.7682C26.0846 97.6922 34.1804 92.541 34.9067 85.2625C35.1462 82.8623 34.5543 80.5304 33.3213 78.4497C34.9412 76.6538 35.9821 74.4848 36.2216 72.0846C36.5227 69.067 35.5099 66.1576 33.5609 63.7195C37.954 61.7848 41.0681 58.2484 41.5944 53.9431Z" fill="#F1E1CE"/>
<path d="M41.5944 53.9431L41.4896 53.4542L41.1413 53.5288L41.098 53.8824L41.5944 53.9431ZM15.8665 40.4779L16.0761 40.9319L16.4342 40.7665L16.3568 40.3797L15.8665 40.4779ZM10.7462 58.7279L10.9477 59.1855L11.5426 58.9235L11.1367 58.4157L10.7462 58.7279ZM4.27213 75.5511L4.64342 75.886L4.88987 75.6127L4.70227 75.2962L4.27213 75.5511ZM33.3213 78.4497L32.95 78.1149L32.7035 78.3881L32.8911 78.7047L33.3213 78.4497ZM33.5609 63.7195L33.3594 63.2619L32.7645 63.5239L33.1704 64.0317L33.5609 63.7195ZM54.8966 40.6714C54.2728 46.9222 48.8319 51.8818 41.4896 53.4542L41.6991 54.432C49.3187 52.8002 55.2114 47.5873 55.8916 40.7707L54.8966 40.6714ZM37.0455 23.6307C47.8553 24.7094 55.7187 32.4319 54.8966 40.6714L55.8916 40.7707C56.7896 31.7717 48.2676 23.7456 37.1448 22.6357L37.0455 23.6307ZM16.1792 36.808C17.0014 28.5685 26.2358 22.5521 37.0455 23.6307L37.1448 22.6357C26.0221 21.5258 16.0821 27.7097 15.1842 36.7087L16.1792 36.808ZM16.3568 40.3797C16.1237 39.2159 16.0583 38.0195 16.1792 36.808L15.1842 36.7087C15.0532 38.0214 15.1242 39.3174 15.3762 40.5761L16.3568 40.3797ZM15.657 40.0239C11.2142 42.0747 8.04064 45.776 7.58791 50.3131L8.58296 50.4124C8.99216 46.3117 11.8703 42.8732 16.0761 40.9319L15.657 40.0239ZM7.58791 50.3131C7.27193 53.4797 8.33787 56.5159 10.3556 59.0401L11.1367 58.4157C9.25649 56.0636 8.29673 53.281 8.58296 50.4124L7.58791 50.3131ZM10.5446 58.2703C5.95179 60.293 2.65162 64.0545 2.1892 68.6887L3.18426 68.788C3.60215 64.6001 6.59569 61.1021 10.9477 59.1855L10.5446 58.2703ZM2.1892 68.6887C1.93802 71.2059 2.56043 73.6435 3.84199 75.806L4.70227 75.2962C3.51773 73.2974 2.95643 71.0712 3.18426 68.788L2.1892 68.6887ZM3.90085 75.2162C2.21724 77.0829 1.12544 79.3494 0.874258 81.8666L1.86932 81.9659C2.09715 79.6826 3.08727 77.6113 4.64342 75.886L3.90085 75.2162ZM0.874258 81.8666C0.110086 89.5248 7.35765 96.3261 16.7745 97.2657L16.8738 96.2707C7.76992 95.3622 1.18093 88.8646 1.86932 81.9659L0.874258 81.8666ZM16.7745 97.2657C26.1914 98.2054 34.64 92.9704 35.4042 85.3122L34.4092 85.2129C33.7208 92.1116 25.9778 97.1791 16.8738 96.2707L16.7745 97.2657ZM35.4042 85.3122C35.6554 82.7949 35.033 80.3574 33.7514 78.1948L32.8911 78.7047C34.0757 80.7035 34.637 82.9296 34.4092 85.2129L35.4042 85.3122ZM33.6926 78.7846C35.3762 76.918 36.468 74.6515 36.7192 72.1342L35.7241 72.0349C35.4963 74.3182 34.5061 76.3895 32.95 78.1149L33.6926 78.7846ZM36.7192 72.1342C37.0351 68.9677 35.9692 65.9314 33.9515 63.4073L33.1704 64.0317C35.0506 66.3838 36.0103 69.1664 35.7241 72.0349L36.7192 72.1342ZM33.7624 64.1771C38.2739 62.1902 41.5379 58.5262 42.0907 54.0038L41.098 53.8824C40.5983 57.9706 37.6341 61.3793 33.3594 63.2619L33.7624 64.1771Z" fill="#DEBA99"/>
</svg>
