<svg width="166" height="105" viewBox="0 0 166 105" fill="none" xmlns="http://www.w3.org/2000/svg">
<g clip-path="url(#clip0_33_2836)">
<path d="M154.191 95.3671C154.191 95.3671 166.135 109.431 159.269 117.829C152.403 126.228 142.762 110.372 142.762 110.372L136.061 101.535L143.457 83.5311C147.26 87.2669 150.844 91.2188 154.191 95.3671Z" fill="#EFD565"/>
<path d="M51.5256 31.8603C67.3495 25.1617 84.7363 23.0166 101.714 25.6683L101.867 25.6494C109.312 26.7946 116.319 29.8786 122.182 34.5897C128.046 39.3009 132.557 45.4722 135.259 52.4804C140.398 65.8302 149.359 109.908 150.984 123.085C150.984 123.085 156.069 150.146 92.6924 157.965C29.3162 165.784 27.9166 138.269 27.9166 138.269C27.9166 138.269 25.5695 119.245 25.043 110.935C23.9903 96.014 24.2274 81.0291 25.7517 66.1463C26.6424 58.6787 29.4973 51.577 34.0269 45.5609C38.5565 39.5448 44.5999 34.8282 51.5447 31.889L51.5256 31.8603Z" fill="#F2F2F2"/>
<path d="M51.5256 31.8603C67.3495 25.1617 84.7363 23.0166 101.714 25.6683L101.867 25.6494C109.312 26.7946 116.319 29.8786 122.182 34.5897C128.046 39.3009 132.557 45.4722 135.259 52.4804C140.398 65.8302 149.359 109.908 150.984 123.085C150.984 123.085 156.069 150.146 92.6924 157.965C29.3162 165.784 27.9166 138.269 27.9166 138.269C27.9166 138.269 25.5695 119.245 25.043 110.935C23.9903 96.014 24.2274 81.0291 25.7517 66.1463C26.6424 58.6787 29.4973 51.577 34.0269 45.5609C38.5565 39.5448 44.5999 34.8282 51.5447 31.889L51.5256 31.8603Z" fill="#FFE36C"/>
<path d="M119.19 71.5723C122.955 71.1079 125.631 67.689 125.168 63.9361C124.705 60.1832 121.278 57.5174 117.513 57.9819C113.749 58.4463 111.072 61.8652 111.535 65.6181C111.998 69.371 115.425 72.0368 119.19 71.5723Z" fill="black"/>
<path d="M64.4562 78.3276C68.221 77.8631 70.8975 74.4442 70.4345 70.6913C69.9715 66.9384 66.5442 64.2726 62.7795 64.7371C59.0148 65.2016 56.3382 68.6205 56.8013 72.3734C57.2643 76.1263 60.6915 78.792 64.4562 78.3276Z" fill="black"/>
<path d="M16.9375 115.589C16.9375 115.589 8.78499 132.132 17.5038 138.623C26.2225 145.114 31.6991 127.347 31.6991 127.347L36.019 117.134L24.4386 101.472C21.6667 106.029 19.1621 110.743 16.9375 115.589Z" fill="#FFE36C"/>
<path d="M57.8284 102.323C63.662 101.603 67.8094 96.3055 67.092 90.4902C66.3745 84.6749 61.0638 80.5441 55.2302 81.2638C49.3966 81.9836 45.2491 87.2813 45.9666 93.0966C46.684 98.9119 51.9947 103.043 57.8284 102.323Z" fill="#FFA052"/>
<path d="M130.991 93.2963C136.825 92.5766 140.972 87.2789 140.255 81.4636C139.537 75.6483 134.226 71.5175 128.393 72.2372C122.559 72.957 118.412 78.2546 119.129 84.07C119.847 89.8853 125.157 94.0161 130.991 93.2963Z" fill="#FFA052"/>
<path d="M103.571 85.8166L86.6828 87.9002C84.3689 88.1774 82.0396 87.5302 80.2042 86.1C78.3688 84.6698 77.1766 82.5729 76.8881 80.2677C76.2989 75.4927 88.2786 70.7674 93.0841 70.1745C97.8741 69.5835 110.643 71.2555 111.232 76.0305C111.513 78.3393 110.864 80.6657 109.428 82.5C107.992 84.3342 105.886 85.5269 103.571 85.8166Z" fill="#FFBB4D"/>
<path d="M74.2498 25.5057C74.2498 25.5057 73.7221 15.922 78.8644 8.96377C78.9871 8.80011 79.1539 8.6745 79.3453 8.60152C79.5367 8.52854 79.745 8.51118 79.9459 8.55149C80.1467 8.59179 80.3319 8.68809 80.48 8.8292C80.628 8.97031 80.7329 9.15043 80.7823 9.34865C81.9593 13.7285 83.8676 17.879 86.4274 21.626C87.1846 22.5355 88.1279 23.2733 89.1942 23.7902C90.2606 24.307 91.4254 24.591 92.611 24.6232" fill="#FFE36C"/>
<path d="M85.1379 24.579C80.0605 21.8484 75.6328 18.06 72.1555 13.471C72.0359 13.3024 71.8702 13.1715 71.6781 13.094C71.486 13.0166 71.2756 12.9957 71.0719 13.0339C70.8682 13.0722 70.6797 13.1679 70.5288 13.3097C70.378 13.4515 70.2711 13.6335 70.2209 13.834C69.8026 16.4123 69.7225 19.0337 69.9828 21.6321C70.0631 22.8702 69.708 24.0978 68.9787 25.1037C68.2494 26.1097 67.1915 26.831 65.9869 27.1437" fill="#FFE36C"/>
</g>
<defs>
<clipPath id="clip0_33_2836">
<rect width="166" height="105" fill="white"/>
</clipPath>
</defs>
</svg>
