<svg width="29" height="30" viewBox="0 0 29 30" fill="none" xmlns="http://www.w3.org/2000/svg">
<g filter="url(#filter0_d_14_1849)">
<path d="M9.79511 15.3493V11.5648L2 19.4937L3.83638 21.4078L9.79511 15.3493ZM27.5257 13.0099C27.0779 11.0036 26.0474 9.12759 24.5305 7.55677L19.186 2L16.1275 5.11373L15.9058 5.33733V9.12182L19.167 5.80083L22.2065 8.95823L22.6688 9.44354L22.7004 9.47625C22.7004 9.47625 22.9031 9.67802 23.1817 10.0216C24.0569 11.0638 24.6616 12.2559 24.9547 13.5171C25.3853 15.7474 25.588 18.3485 23.169 21.5168V25.4267C23.397 25.225 23.5426 25.0832 23.5933 25.0287C25.6063 23.1401 26.9968 20.8225 27.6207 18.3158C27.9638 16.5569 27.9316 14.7589 27.5257 13.0099ZM11.3149 24.6688L11.2325 24.6306H11.1882C10.9525 24.4974 10.7281 24.3498 10.517 24.1889C10.3207 24.0417 10.0737 23.8508 9.78244 23.6054C9.33917 23.2291 8.79459 22.7274 8.12336 22.0567L6.61626 20.4971L4.76089 22.3893L6.25534 23.9489C8.56664 26.2556 9.75712 26.9154 10.1941 27.1009C11.5491 27.7906 13.0611 28.2202 14.6267 28.3605C15.3376 28.4178 16.0538 28.4032 16.7607 28.3169H16.9317V25.5904C14.9914 25.902 12.9861 25.5729 11.3149 24.6688Z" fill="url(#paint0_linear_14_1849)"/>
<path d="M14.596 6.68419L14.5707 22.8473L11.0942 22.8419L11.1132 10.2287L11.4615 9.86884L11.6515 9.67796L12.7026 8.60916L13.4182 7.88389L13.6462 7.6494L14.3617 6.92413L14.596 6.68419Z" fill="url(#paint1_linear_14_1849)"/>
<path d="M21.8715 10.3098V26.4348L21.8209 26.4675L21.3143 26.7838L21.1306 26.8874C20.9723 26.9801 20.8014 27.0674 20.6241 27.1546C20.4468 27.2419 20.2948 27.3182 20.1238 27.3946L19.8325 27.52L19.4462 27.6781L19.1233 27.7927C18.908 27.8635 18.6864 27.9344 18.4521 27.9999L18.2811 28.0435V10.3043L21.8715 10.3098Z" fill="url(#paint2_linear_14_1849)"/>
<path d="M14.601 14.5865L14.5958 18.2455L18.2876 18.2494L18.2928 14.5903L14.601 14.5865Z" fill="url(#paint3_linear_14_1849)"/>
</g>
<defs>
<filter id="filter0_d_14_1849" x="0.922662" y="0.922662" width="28.0109" height="28.5495" filterUnits="userSpaceOnUse" color-interpolation-filters="sRGB">
<feFlood flood-opacity="0" result="BackgroundImageFix"/>
<feColorMatrix in="SourceAlpha" type="matrix" values="0 0 0 0 0 0 0 0 0 0 0 0 0 0 0 0 0 0 127 0" result="hardAlpha"/>
<feOffset/>
<feGaussianBlur stdDeviation="0.538669"/>
<feComposite in2="hardAlpha" operator="out"/>
<feColorMatrix type="matrix" values="0 0 0 0 1 0 0 0 0 1 0 0 0 0 1 0 0 0 0.4 0"/>
<feBlend mode="normal" in2="BackgroundImageFix" result="effect1_dropShadow_14_1849"/>
<feBlend mode="normal" in="SourceGraphic" in2="effect1_dropShadow_14_1849" result="shape"/>
</filter>
<linearGradient id="paint0_linear_14_1849" x1="22.8639" y1="35.6929" x2="1.31623" y2="30.2783" gradientUnits="userSpaceOnUse">
<stop stop-color="#FCFCD1"/>
<stop offset="0.494792" stop-color="#B2E7DD"/>
<stop offset="0.989583" stop-color="#76D6E6"/>
</linearGradient>
<linearGradient id="paint1_linear_14_1849" x1="22.8639" y1="35.6929" x2="1.31623" y2="30.2783" gradientUnits="userSpaceOnUse">
<stop stop-color="#FCFCD1"/>
<stop offset="0.494792" stop-color="#B2E7DD"/>
<stop offset="0.989583" stop-color="#76D6E6"/>
</linearGradient>
<linearGradient id="paint2_linear_14_1849" x1="22.8639" y1="35.6929" x2="1.31623" y2="30.2783" gradientUnits="userSpaceOnUse">
<stop stop-color="#FCFCD1"/>
<stop offset="0.494792" stop-color="#B2E7DD"/>
<stop offset="0.989583" stop-color="#76D6E6"/>
</linearGradient>
<linearGradient id="paint3_linear_14_1849" x1="22.8639" y1="35.6929" x2="1.31623" y2="30.2783" gradientUnits="userSpaceOnUse">
<stop stop-color="#FCFCD1"/>
<stop offset="0.494792" stop-color="#B2E7DD"/>
<stop offset="0.989583" stop-color="#76D6E6"/>
</linearGradient>
</defs>
</svg>
