<svg width="162" height="75" viewBox="0 0 162 75" fill="none" xmlns="http://www.w3.org/2000/svg">
<g clip-path="url(#clip0_33_2833)">
<path d="M146.184 91.6476C146.184 91.6476 162.556 80.5828 158.034 69.8332C153.526 59.0904 138.911 72.8 138.911 72.8L129.444 80.0292L131.678 100.857C131.678 100.857 141.897 95.123 146.184 91.6476Z" fill="#4B9B3A"/>
<path d="M11.7508 78.01C11.7508 78.01 -7.99823 147.659 79.983 142.471C154.757 138.049 134.606 77.9943 134.606 77.9943C140.514 72.3217 144.21 64.3051 144.21 55.4133C144.21 43.4743 137.56 33.098 127.786 27.8786L127.755 27.8317C128.25 25.9721 128.559 24.0656 128.559 22.0497C128.559 9.87626 118.8 0 106.738 0C97.9225 0 90.3446 5.28192 86.9114 12.8766H85.7824L65.0127 12.8766H64.2858C60.8371 5.28192 53.2747 0 44.475 0C32.4276 0 22.6537 9.87626 22.6537 22.0497C22.6537 23.378 22.8083 24.6907 23.0403 25.9564H22.9939C10.8692 30.1445 2.16235 41.7553 2.16235 55.4133C2.16235 64.3051 5.84308 72.3217 11.7508 78.01Z" fill="#49B236"/>
<path d="M106.98 38.7723C102.949 38.7723 99.6807 35.47 99.6807 31.3965C99.6807 27.3229 102.949 24.0206 106.98 24.0206C111.012 24.0206 114.28 27.3229 114.28 31.3965C114.28 35.47 111.012 38.7723 106.98 38.7723Z" fill="black"/>
<path d="M48.4085 38.7723C44.377 38.7723 41.1089 35.47 41.1089 31.3965C41.1089 27.3229 44.377 24.0206 48.4085 24.0206C52.4399 24.0206 55.708 27.3229 55.708 31.3965C55.708 35.47 52.4399 38.7723 48.4085 38.7723Z" fill="black"/>
<path d="M124.779 63.4701C117.664 63.4701 111.896 57.9428 111.896 51.1247C111.896 44.3065 117.664 38.7793 124.779 38.7793C131.894 38.7793 137.661 44.3065 137.661 51.1247C137.661 57.9428 131.894 63.4701 124.779 63.4701Z" fill="#9CD43D"/>
<path d="M34.1964 63.4701C27.0816 63.4701 21.3139 57.9428 21.3139 51.1247C21.3139 44.3065 27.0816 38.7793 34.1964 38.7793C41.3112 38.7793 47.0789 44.3065 47.0789 51.1247C47.0789 57.9428 41.3112 63.4701 34.1964 63.4701Z" fill="#9CD43D"/>
<circle cx="8.04538" cy="8.04538" r="8.04538" transform="matrix(-1 0 0 1 87.9272 38.5905)" fill="white"/>
</g>
<defs>
<clipPath id="clip0_33_2833">
<rect width="162" height="75" fill="white"/>
</clipPath>
</defs>
</svg>
