<svg width="314" height="224" viewBox="0 0 314 224" fill="none" xmlns="http://www.w3.org/2000/svg">
<path fill-rule="evenodd" clip-rule="evenodd" d="M129.877 0.433506C128.001 2.97192 126.88 5.85975 126.212 8.50422C125.131 7.37913 124.114 6.18956 123.168 4.9407C123.048 4.77205 122.883 4.64122 122.691 4.56375C122.499 4.48627 122.288 4.46541 122.084 4.50363C121.881 4.54186 121.692 4.63757 121.541 4.77939C121.391 4.92121 121.284 5.10317 121.233 5.30369C120.815 7.88202 120.735 10.5034 120.995 13.1018C121.076 14.3399 120.721 15.5675 119.991 16.5734C119.367 17.4339 118.503 18.0862 117.512 18.4526C112.411 19.644 107.401 21.2725 102.538 23.331L102.557 23.3598C95.6126 26.2989 89.5692 31.0155 85.0395 37.0316C80.5099 43.0477 77.6551 50.1494 76.7644 57.6171C76.5188 60.0148 76.3066 62.4152 76.1279 64.8176C75.2427 64.8756 74.3602 64.9627 73.4817 65.0788C73.4399 64.939 73.3939 64.8001 73.344 64.6624C69.9906 55.3281 64.3351 43.6304 56.3335 40.8803C54.7351 40.3305 53.0299 40.1606 51.3529 40.384C49.6759 40.6074 48.0732 41.218 46.6718 42.1674C38.632 47.2458 39.1283 59.3879 48.097 76.3352C44.1458 79.0951 40.4316 82.1782 36.9929 85.5516C36.871 85.4475 36.7455 85.3469 36.6165 85.2501C21.2438 73.6044 9.27877 71.1318 2.96904 78.3092C1.81005 79.545 0.952924 81.032 0.464921 82.6535C-0.0230814 84.275 -0.128674 85.9868 0.156477 87.6544C1.61543 95.9811 12.2601 103.407 20.9547 108.208C21.0069 108.236 21.0594 108.264 21.1121 108.291C19.8498 111.838 19.084 115.559 18.8501 119.348C18.412 126.443 19.8545 133.524 23.032 139.877C27.315 148.089 32.0594 156.047 37.2414 163.713C36.9016 167.329 36.7132 170.957 36.6769 174.589C36.6769 174.589 36.0242 191.993 46.0369 194.239C51.7462 195.52 53.5093 190.404 53.9702 185.769C58.2433 190.93 62.247 195.627 62.247 195.627C62.247 195.627 66.8149 201.84 78.3731 201.198L79.1829 202.148C80.8996 204.162 83.3477 205.411 85.9885 205.618C88.5287 205.818 91.047 205.04 93.0312 203.45C94.3064 205.236 95.7654 206.967 97.4314 208.615V213.073C97.4314 218.917 102.117 223.652 107.901 223.652C111.204 223.652 114.149 222.108 116.068 219.695C121.827 221.649 128.608 223.02 136.582 223.615C142.13 224.035 148.258 224.078 155.022 223.679C164.48 223.12 172.418 221.671 179.071 219.566C181.125 222.062 184.221 223.651 187.687 223.651C193.873 223.651 198.883 218.588 198.883 212.337V208.555H198.862C208.491 199.691 211.487 188.452 211.929 178.939C212.853 178.382 213.832 177.783 214.811 177.169C215.121 177.256 215.432 177.342 215.743 177.428C216.228 177.566 216.714 177.702 217.201 177.836C222.623 179.399 228.133 180.62 233.698 181.494C234.414 181.616 235.131 181.732 235.849 181.844C239.988 182.493 244.162 182.882 248.347 183.009C248.648 183.019 248.949 183.027 249.25 183.034L249.404 183.037C249.534 183.326 249.678 183.609 249.835 183.887C251.167 186.229 253.379 187.954 255.985 188.682C258.591 189.41 261.377 189.081 263.73 187.768C266.083 186.455 267.81 184.266 268.533 181.681L269.002 180.002C273.16 178.322 275.963 176.173 277.838 174.163C278.412 173.548 278.899 172.946 279.312 172.374C281.073 169.932 281.474 168.043 281.47 168.058C282.39 164.764 283.659 159.331 285.034 152.864C287.785 151.491 290.488 150.025 293.138 148.468C293.138 148.468 308.881 139.761 305.465 129.739C302.792 121.896 293.488 127.007 289.566 129.602C290.466 124.547 291.292 119.567 291.967 115.013C292.44 112.198 292.834 109.37 293.147 106.533C293.438 103.902 293.659 101.262 293.812 98.6177C293.839 97.5802 293.826 96.5441 293.775 95.5117C304.082 92.6994 316.707 87.1886 312.498 77.5674C312.394 77.3396 312.282 77.1164 312.161 76.898C311.365 75.3696 310.215 74.212 308.81 73.3577C308.167 72.9535 307.479 72.6253 306.759 72.3796C301.048 70.2801 292.695 71.588 286.005 73.3216L285.934 73.2235C289.594 70.2338 292.748 66.6824 295.278 62.7026C295.612 62.1933 295.781 61.5948 295.764 60.9863C295.748 60.3778 295.545 59.7879 295.184 59.2949C294.822 58.8018 294.319 58.4288 293.74 58.2252C293.162 58.0216 292.536 57.997 291.944 58.1547C286.69 59.457 281.64 61.4615 276.933 64.1135C275.901 63.3472 274.83 62.6264 273.726 61.9543L273.58 61.9136C268.436 58.7817 262.99 56.169 257.326 54.1148C247.238 50.4469 236.578 48.5987 225.85 48.6575C224.455 48.6641 223.066 48.7398 221.687 48.8832C221.584 48.1688 221.318 47.3651 220.853 46.4612C218.737 42.3715 216.45 40.0391 213.828 37.3641L213.827 37.3635L213.824 37.3607L213.821 37.3574C213.373 36.8999 212.914 36.4323 212.445 35.9441C212.021 35.5028 211.473 35.1992 210.873 35.0735C210.273 34.9478 209.649 35.006 209.084 35.2403C208.519 35.4747 208.041 35.8742 207.711 36.3858C207.381 36.8975 207.216 37.4972 207.237 38.1056C207.412 40.8585 207.795 43.5911 208.38 46.2809C205.6 43.1285 202.386 40.0404 199.056 37.9711C197.529 37.0194 195.976 36.2816 194.43 35.8495C193.206 35.4618 191.916 35.3297 190.64 35.4616C189.364 35.5935 188.131 35.9867 187.018 36.6162C186.694 36.8015 186.39 36.9953 186.105 37.1973C183.529 32.92 180.209 29.1103 176.282 25.9554C170.419 21.2443 163.412 18.1603 155.967 17.015L155.814 17.034C151.292 16.3278 146.742 15.9618 142.2 15.9314C141.512 15.7928 140.842 15.5676 140.207 15.2599C139.141 14.743 138.197 14.0052 137.44 13.0958C134.88 9.3487 132.972 5.19822 131.795 0.818379C131.746 0.620165 131.641 0.440041 131.493 0.29893C131.345 0.15782 131.159 0.0615241 130.959 0.0212178C130.758 -0.0190885 130.549 -0.00172973 130.358 0.0712506C130.167 0.144231 130 0.26984 129.877 0.433506Z" fill="url(#paint0_linear_14_1558)"/>
<defs>
<linearGradient id="paint0_linear_14_1558" x1="89.1861" y1="26.8833" x2="170.512" y2="209.686" gradientUnits="userSpaceOnUse">
<stop offset="0.25" stop-color="#96FFFF" stop-opacity="0"/>
<stop offset="1" stop-color="#96FFFF" stop-opacity="0.5"/>
</linearGradient>
</defs>
</svg>
