<svg width="163" height="122" viewBox="0 0 163 122" fill="none" xmlns="http://www.w3.org/2000/svg">
<g clip-path="url(#clip0_33_2834)">
<path d="M140.339 59.4403C140.339 59.4403 156.954 64.6875 155.693 74.8506C154.433 85.0138 138.757 77.1773 138.757 77.1773L128.959 73.4763L125.811 55.367C130.728 56.4438 135.579 57.8038 140.339 59.4403Z" fill="#EFEFEF"/>
<path d="M143.749 112.646L158.612 99.9784L160.71 102.44C162.386 104.407 163.211 106.96 163.003 109.539C162.795 112.118 161.571 114.51 159.6 116.19C157.629 117.87 155.073 118.7 152.494 118.497C149.915 118.294 147.524 117.075 145.847 115.108L143.749 112.646Z" fill="#EFEFEF"/>
<path d="M29.4733 65.5353C38.4564 52.031 51.0397 41.3056 65.7964 34.5752L65.8964 34.49C72.355 31.5219 79.4802 30.3111 86.5505 30.9803C93.6207 31.6495 100.385 34.1749 106.158 38.3008C117.162 46.1482 147.14 76.2568 155.276 85.802C155.276 85.802 173.359 104.497 127.505 143.581C81.6513 182.664 66.2343 161.697 66.2343 161.697C66.2343 161.697 54.4886 147.917 49.762 141.629C41.1635 130.415 33.5542 118.476 27.0193 105.946C23.8418 99.5941 22.3992 92.5128 22.8373 85.4178C23.2754 78.3228 25.5787 71.4654 29.5145 65.5385L29.4733 65.5353Z" fill="#F2F2F2"/>
<path d="M29.4733 65.5353C38.4564 52.031 51.0397 41.3056 65.7964 34.5752L65.8964 34.49C72.355 31.5219 79.4802 30.3111 86.5505 30.9803C93.6207 31.6495 100.385 34.1749 106.158 38.3008C117.162 46.1482 147.14 76.2568 155.276 85.802C155.276 85.802 173.359 104.497 127.505 143.581C81.6513 182.664 66.2343 161.697 66.2343 161.697C66.2343 161.697 54.4886 147.917 49.762 141.629C41.1635 130.415 33.5542 118.476 27.0193 105.946C23.8418 99.5941 22.3992 92.5128 22.8373 85.4178C23.2754 78.3228 25.5787 71.4654 29.5145 65.5385L29.4733 65.5353Z" fill="white"/>
<path d="M61.6355 101.152L56.648 105.404C53.9119 107.736 53.5807 111.84 55.9083 114.571L55.9177 114.582C58.2453 117.313 62.3502 117.636 65.0863 115.304L70.0738 111.052C72.8099 108.72 73.1411 104.616 70.8135 101.885L70.8041 101.874C68.4765 99.1435 64.3716 98.8203 61.6355 101.152Z" fill="#FFD2D2"/>
<path d="M114.156 56.3878L109.168 60.6389C106.432 62.971 106.101 67.0753 108.428 69.806L108.438 69.8171C110.765 72.5479 114.87 72.871 117.606 70.5389L122.594 66.2878C125.33 63.9557 125.661 59.8514 123.334 57.1207L123.324 57.1096C120.997 54.3788 116.892 54.0557 114.156 56.3878Z" fill="#FFD2D2"/>
<path d="M103.435 61.6989C106.158 59.3772 106.488 55.2914 104.171 52.5729C101.854 49.8543 97.7674 49.5326 95.0435 51.8543C92.3197 54.176 91.99 58.2618 94.3071 60.9803C96.6242 63.6989 100.711 64.0206 103.435 61.6989Z" fill="black"/>
<path d="M63.8342 95.4537C66.5581 93.1321 66.8878 89.0462 64.5706 86.3277C62.2535 83.6092 58.167 83.2874 55.4432 85.6091C52.7193 87.9308 52.3896 92.0167 54.7068 94.7352C57.0239 97.4537 61.1104 97.7754 63.8342 95.4537Z" fill="black"/>
<path d="M39.2489 59.7682C39.8428 58.9093 40.083 57.8551 39.9195 56.8251C39.756 55.7951 39.2014 54.8686 38.3711 54.2383C31.8109 49.2643 16.4438 39.0876 9.64646 46.7954C1.61962 55.8957 19.1695 66.9681 26.696 71.1184C27.5709 71.5706 28.578 71.6992 29.5398 71.4817C30.5016 71.2641 31.3565 70.7143 31.9536 69.9292L39.2489 59.7682Z" fill="#FFD2D2"/>
<path d="M33.7278 73.3353C32.5286 74.3615 31.0471 75.0008 29.4787 75.1691C27.9102 75.3373 26.3286 75.0265 24.9422 74.2777C16.2475 69.477 5.60285 62.0509 4.1439 53.7242C3.85875 52.0565 3.96434 50.3448 4.45234 48.7233C4.94034 47.1018 5.79747 45.6148 6.95646 44.3789C13.2662 37.2016 25.2312 39.6742 40.604 51.3199C42.2055 52.5218 43.2693 54.3056 43.566 56.2868C43.8628 58.268 43.3688 60.2879 42.1905 61.9112L34.9396 72.0344C34.5883 72.5142 34.1815 72.9508 33.7278 73.3353ZM12.8069 48.7903C12.6459 48.9085 12.4937 49.0382 12.3515 49.1784C11.9249 49.5938 11.605 50.1059 11.4189 50.6711C11.2328 51.2364 11.186 51.8379 11.2827 52.4245C11.9888 56.493 18.566 62.4095 28.4493 67.8623C28.5411 67.8889 28.638 67.8925 28.7315 67.8728C28.8251 67.8531 28.9125 67.8107 28.9859 67.7494L36.2257 57.6357C36.2866 57.5517 36.3134 57.4478 36.3005 57.345C36.2877 57.2422 36.2362 57.1482 36.1565 57.0821C28.0175 50.9082 17.1168 45.1167 12.8513 48.7524L12.8069 48.7903Z" fill="white"/>
<path d="M60.7666 42.5619C59.8256 43.0198 58.7441 43.0939 57.7509 42.7686C56.7577 42.4434 55.931 41.7442 55.4456 40.8192C51.5736 33.554 43.9581 16.7893 52.647 11.2783C62.8928 4.80382 71.0564 23.8766 73.962 31.9656C74.2981 32.8993 74.2794 33.9245 73.9094 34.8467C73.5395 35.7689 72.844 36.5239 71.955 36.9684L60.7666 42.5619Z" fill="#FFD2D2"/>
<path d="M75.0946 39.2229C74.6155 39.6321 74.0871 39.9797 73.5216 40.2575L62.3888 45.8036C60.5993 46.7141 58.5248 46.8852 56.6131 46.28C54.7015 45.6747 53.106 44.3418 52.1713 42.5688C43.119 25.5359 42.5936 13.3319 50.6592 8.23719C52.0606 7.28775 53.6633 6.67714 55.3403 6.45372C57.0173 6.2303 58.7225 6.40021 60.321 6.95001C68.3225 9.70011 73.978 21.3979 77.3314 30.7321C77.8657 32.2052 77.9379 33.8071 77.5383 35.324C77.1386 36.841 76.2862 38.2011 75.0946 39.2229ZM54.0643 14.7521C49.7877 18.3972 53.762 30.035 58.6125 39.1458C58.6627 39.2321 58.7438 39.296 58.8394 39.3247C58.9351 39.3533 59.0381 39.3445 59.1276 39.3001L70.2716 33.7445C70.3612 33.7004 70.4315 33.6251 70.4695 33.5328C70.5074 33.4406 70.5103 33.3377 70.4775 33.2435C66.6498 22.6102 61.8388 15.1883 57.943 13.8577C57.3794 13.6611 56.7757 13.6066 56.1855 13.699C55.5952 13.7915 55.0366 14.028 54.5591 14.3877C54.3849 14.496 54.2195 14.6179 54.0643 14.7521Z" fill="white"/>
<path d="M107.597 92.2967L93.4007 104.397C83.6587 112.7 82.4774 127.311 90.7622 137.031C99.0469 146.751 113.661 147.899 123.403 139.596L137.599 127.496C147.341 119.192 148.522 104.581 140.237 94.8612C131.952 85.1412 117.339 83.9931 107.597 92.2967Z" fill="#F4F4F4"/>
<path d="M40.6643 140.659C40.6643 140.659 40.0116 158.062 50.0243 160.309C60.0369 162.556 57.9127 145.126 57.9127 145.126L57.7013 134.656L41.6904 125.599C41.0572 130.595 40.7146 135.624 40.6643 140.659Z" fill="white"/>
<path d="M131.6 124.918C131.455 125.044 131.286 125.139 131.103 125.199C130.921 125.26 130.729 125.283 130.537 125.269L121.342 124.493C120.979 124.436 120.652 124.245 120.425 123.956C120.198 123.668 120.088 123.305 120.117 122.939C120.147 122.573 120.314 122.231 120.584 121.982C120.854 121.733 121.209 121.595 121.576 121.595L130.735 122.306C130.927 122.32 131.114 122.372 131.286 122.46C131.457 122.547 131.61 122.667 131.735 122.813C131.859 122.959 131.954 123.129 132.013 123.312C132.071 123.495 132.093 123.688 132.077 123.88C132.071 124.076 132.026 124.269 131.944 124.448C131.862 124.626 131.745 124.786 131.6 124.918Z" fill="#FFD2D2"/>
<path d="M126.634 129.15C126.489 129.276 126.32 129.371 126.137 129.432C125.955 129.492 125.763 129.515 125.571 129.501C125.379 129.487 125.192 129.435 125.021 129.348C124.849 129.261 124.697 129.14 124.572 128.994C124.447 128.848 124.353 128.678 124.294 128.495C124.235 128.312 124.213 128.119 124.23 127.927L124.968 118.78C124.982 118.588 125.035 118.401 125.122 118.229C125.21 118.058 125.33 117.905 125.477 117.78C125.623 117.655 125.793 117.56 125.977 117.501C126.16 117.442 126.353 117.42 126.545 117.436C126.929 117.467 127.285 117.649 127.534 117.942C127.784 118.235 127.907 118.615 127.877 118.999L127.138 128.166C127.105 128.547 126.924 128.901 126.634 129.15Z" fill="#FFD2D2"/>
<path d="M86.8297 78.3967L78.7772 80.3794C78.5902 80.4245 78.3962 80.4322 78.2063 80.4023C78.0165 80.3724 77.8344 80.3054 77.6705 80.2052C77.3397 80.0026 77.103 79.6768 77.0128 79.2994C76.9225 78.922 76.986 78.5239 77.1893 78.1927C77.3925 77.8615 77.7189 77.6243 78.0966 77.5334L84.7525 75.9372L87.6727 69.1033C87.8263 68.7464 88.1153 68.4649 88.4761 68.3207C88.8369 68.1765 89.24 68.1813 89.5967 68.3342C89.9533 68.4871 90.2343 68.7755 90.3779 69.1359C90.5215 69.4964 90.5158 69.8993 90.3622 70.2561L86.8297 78.3967Z" fill="#FFD2D2"/>
<path d="M89.0367 87.676C87.913 88.6764 86.4627 89.2318 84.9594 89.2373C84.5726 89.237 84.202 89.0831 83.9293 88.8095C83.6565 88.5359 83.5038 88.1649 83.5048 87.7782C83.5058 87.3916 83.6605 87.0208 83.9347 86.7476C84.2089 86.4744 84.5803 86.321 84.9671 86.3213C85.7695 86.2968 86.5353 85.978 87.1185 85.4254C87.4354 85.2146 87.7025 84.9371 87.9012 84.6124C88.0998 84.2878 88.2252 83.9238 88.2685 83.546C88.3118 83.1681 88.2719 82.7856 88.1518 82.425C88.0317 82.0645 87.8342 81.7347 87.5731 81.4587L84.6626 78.0441C84.412 77.7501 84.2887 77.3684 84.3198 76.9829C84.3509 76.5975 84.5339 76.2398 84.8285 75.9887C85.1231 75.7376 85.5052 75.6136 85.8908 75.644C86.2763 75.6743 86.6336 75.8565 86.8842 76.1506L89.8041 79.5762C90.4057 80.3225 90.8336 81.1934 91.0569 82.126C91.2937 83.1462 91.2289 84.2139 90.8702 85.1991C90.5116 86.1844 89.8746 87.0448 89.0367 87.676Z" fill="#FFD2D2"/>
<path d="M95.8946 81.8246C95.3318 82.3557 94.6693 82.7699 93.9455 83.043C93.2217 83.3161 92.4511 83.4428 91.6785 83.4156C90.9059 83.3885 90.1466 83.2081 89.4449 82.8849C88.7433 82.5617 88.1131 82.1021 87.5912 81.5329C87.3406 81.2389 87.2173 80.8572 87.2484 80.4717C87.2795 80.0863 87.4624 79.7286 87.757 79.4775C88.0516 79.2264 88.4338 79.1024 88.8193 79.1328C89.2048 79.1631 89.5622 79.3453 89.8128 79.6394C90.0755 79.9408 90.3996 80.1827 90.7635 80.3488C91.1274 80.5149 91.5227 80.6014 91.923 80.6026C92.3233 80.6038 92.7194 80.5196 93.0849 80.3556C93.4504 80.1916 93.7769 79.9517 94.0425 79.6517C94.688 79.1736 95.1291 78.4693 95.2773 77.6805C95.3029 77.4903 95.3656 77.3069 95.462 77.1409C95.5584 76.9748 95.6865 76.8293 95.839 76.7126C95.9915 76.5959 96.1655 76.5104 96.351 76.4608C96.5365 76.4113 96.7298 76.3988 96.92 76.4239C97.1102 76.4491 97.2934 76.5114 97.4594 76.6075C97.6253 76.7035 97.7706 76.8313 97.8871 76.9835C98.0035 77.1358 98.0887 77.3095 98.1379 77.4948C98.1871 77.6802 98.1993 77.8734 98.1737 78.0636C97.9172 79.5596 97.1027 80.9038 95.8946 81.8246Z" fill="#FFD2D2"/>
</g>
<defs>
<clipPath id="clip0_33_2834">
<rect width="163" height="122" fill="white"/>
</clipPath>
</defs>
</svg>
