<svg width="181" height="129" viewBox="0 0 181 129" fill="none" xmlns="http://www.w3.org/2000/svg">
<g clip-path="url(#clip0_33_2835)">
<path d="M147.509 121.538C147.509 121.538 163.253 112.831 159.836 102.808C156.42 92.7861 142.173 103.92 142.173 103.92L133.03 109.676L133.648 128.638C138.403 126.54 143.031 124.169 147.509 121.538Z" fill="#EFEFEF"/>
<path d="M30.2798 125.228L50.0021 130.738L49.073 134.064C48.7134 135.351 48.1016 136.555 47.2726 137.605C46.4437 138.656 45.4138 139.533 44.2417 140.187C43.0697 140.841 41.7784 141.259 40.4417 141.417C39.105 141.575 37.749 141.469 36.4512 141.107C33.8408 140.365 31.6282 138.628 30.2975 136.275C28.9668 133.923 28.6264 131.147 29.3507 128.554L30.2798 125.228Z" fill="black"/>
<path d="M129.49 49.9357C129.49 49.9357 160.937 36.9907 166.822 50.5754C173.591 66.1687 136.168 70.975 136.168 70.975L129.49 49.9357Z" fill="#FFCACA"/>
<path d="M158.399 50.9209C160.629 51.5439 161.096 52.5162 161.253 52.9654C161.466 53.3002 161.581 53.6863 161.587 54.0813C161.593 54.4763 161.49 54.8648 161.288 55.2042C159.866 57.7064 152.391 61.9626 140.352 64.2736L137.026 53.6797C144.021 51.4248 153.238 49.4793 158.442 50.9331L158.399 50.9209ZM160.058 45.1492C148.878 42.0258 129.523 49.9935 129.523 49.9935L136.216 71.0369C136.216 71.0369 173.697 66.2469 166.869 50.6373C166.243 49.2624 165.302 48.0507 164.122 47.0986C162.942 46.1464 161.555 45.4803 160.073 45.1532L160.058 45.1492Z" fill="black"/>
<path d="M140.297 46.3005C143.96 43.3094 147.117 39.7554 149.649 35.7724C149.983 35.2632 150.153 34.6647 150.136 34.0562C150.119 33.4477 149.916 32.8578 149.555 32.3647C149.193 31.8717 148.69 31.4986 148.112 31.295C147.533 31.0914 146.907 31.0669 146.316 31.2246C141.049 32.5298 135.989 34.5404 131.273 37.2013C122.798 42.3941 140.297 46.3005 140.297 46.3005Z" fill="#FFC145"/>
<path d="M103.621 156.104C99.1354 155.996 94.6605 155.59 90.2268 154.888C83.4385 153.842 76.7217 152.371 70.1165 150.485C64.3606 148.904 58.6911 147.024 53.1316 144.852C11.7502 128.615 18.9497 108.413 18.9497 108.413C18.9497 108.413 23.9709 90.4392 26.6146 82.7757C31.2571 68.9715 37.0965 55.5976 44.0672 42.8038C47.6795 36.4339 52.9247 31.1307 59.2728 27.43C65.6209 23.7293 72.847 21.7622 80.2211 21.7274C90.949 21.6686 101.609 23.5168 111.697 27.1847C117.362 29.2389 122.807 31.8516 127.951 34.9835L128.097 35.0242C134.39 38.8528 139.561 44.2589 143.088 50.6965C146.615 57.134 148.373 64.3749 148.183 71.6875C147.866 77.1837 147.25 82.6576 146.337 88.085C143.597 106.556 138.384 132.02 135.839 141.13C135.851 141.087 132.552 156.61 103.621 156.104Z" fill="white"/>
<path d="M90.222 154.896C83.4337 153.85 76.7169 152.38 70.1117 150.493C64.3557 148.912 58.6863 147.032 53.1268 144.86C11.7454 128.623 18.9449 108.421 18.9449 108.421C18.9449 108.421 23.966 90.4473 26.6098 82.7838C26.6098 82.7838 59.6018 87.9321 59.6303 113.255C59.6039 115.434 59.8743 117.607 60.4342 119.715C65.1287 136.943 89.1677 130.938 90.2217 154.334C90.2371 154.521 90.2372 154.709 90.222 154.896Z" fill="black"/>
<path d="M146.332 88.0779C134.768 78.1134 141.235 59.2966 124.792 54.7031C105.157 49.2178 111.632 27.2232 111.632 27.2232C117.297 29.2774 122.742 31.8902 127.886 35.0221L128.032 35.0628C134.325 38.8914 139.497 44.2975 143.023 50.735C146.55 57.1726 148.308 64.4135 148.118 71.7261C147.82 77.2059 147.223 82.6645 146.332 88.0779Z" fill="black"/>
<path d="M111.329 136.987L108.033 148.787C107.256 151.578 105.731 154.104 103.618 156.096C92.2617 155.636 81.0036 153.748 70.1135 150.477C64.3575 148.896 58.6881 147.015 53.1286 144.843L59.3778 122.474C59.6399 121.527 59.9915 120.608 60.4279 119.728C62.1052 116.329 64.9264 113.623 68.405 112.077C71.8835 110.53 75.8015 110.24 79.4834 111.255L99.8909 116.956C104.074 118.121 107.628 120.884 109.772 124.64C111.917 128.395 112.477 132.836 111.329 136.987Z" fill="#FFCACA"/>
<path d="M126.468 82.8751C130.043 83.8736 133.743 81.8087 134.734 78.263C135.724 74.7172 133.63 71.0333 130.055 70.0348C126.481 69.0362 122.78 71.1011 121.79 74.6468C120.799 78.1926 122.894 81.8765 126.468 82.8751Z" fill="black"/>
<path d="M74.4992 68.3546C78.0736 69.3532 81.7743 67.2883 82.7648 63.7425C83.7554 60.1968 81.6608 56.5129 78.0863 55.5143C74.5119 54.5157 70.8113 56.5806 69.8207 60.1264C68.8301 63.6721 70.9248 67.356 74.4992 68.3546Z" fill="black"/>
<path d="M119.234 92.0587C121.403 84.2937 117.168 73.3524 102.242 69.1824C87.3149 65.0124 78.285 72.2481 76.1157 80.013C73.9465 87.7779 79.4766 93.1264 94.3886 97.2923C109.301 101.458 117.069 99.8091 119.234 92.0587Z" fill="#FFCACA"/>
<path d="M93.3906 84.307C94.6224 84.6511 95.9952 83.59 96.4571 81.9369C96.9189 80.2838 96.2947 78.6648 95.063 78.3207C93.8313 77.9766 92.4584 79.0377 91.9966 80.6908C91.5348 82.3439 92.1589 83.9629 93.3906 84.307Z" fill="black"/>
<path d="M106.382 87.9384C107.614 88.2825 108.986 87.2213 109.448 85.5683C109.91 83.9152 109.286 82.2961 108.054 81.952C106.822 81.6079 105.45 82.6691 104.988 84.3222C104.526 85.9752 105.15 87.5943 106.382 87.9384Z" fill="black"/>
<path d="M65.2475 27.6246C63.194 22.3555 61.9667 16.8078 61.6085 11.1755C61.5871 10.5671 61.7522 9.96739 62.082 9.45572C62.4119 8.94406 62.8908 8.54459 63.4555 8.31025C64.0201 8.0759 64.6439 8.01772 65.2441 8.1434C65.8443 8.26907 66.3927 8.57267 66.8166 9.01402C70.0307 12.3593 72.7446 14.7386 75.2243 19.5311C79.7769 28.3789 65.2475 27.6246 65.2475 27.6246Z" fill="#FFC145"/>
<path d="M63.901 37.0973C64.9714 36.3322 65.8752 35.3606 66.5587 34.2402C67.2422 33.1198 67.6914 31.8734 67.8796 30.5752C68.0679 29.277 67.9913 27.9533 67.6545 26.6828C67.3178 25.4124 66.7276 24.221 65.9191 23.1796C59.7072 15.2089 49.6399 5.00755 41.4018 9.68968C31.4535 15.3749 40.4939 29.1397 47.459 37.5079C49.0585 39.4348 51.334 40.6879 53.8233 41.0128C56.3127 41.3376 58.8292 40.7098 60.8619 39.2569L63.901 37.0973Z" fill="#FFCACA"/>
<path d="M47.229 14.7156C50.8732 15.7336 55.9388 20.1573 61.1305 26.8298C61.4435 27.2323 61.6718 27.693 61.8016 28.1844C61.9313 28.6758 61.96 29.1878 61.8858 29.6896C61.8117 30.1914 61.6362 30.6728 61.3699 31.1049C61.1037 31.537 60.7521 31.9108 60.3363 32.2041L57.3264 34.3718C56.8567 34.7085 56.3153 34.9339 55.7436 35.0308C55.1719 35.1277 54.5848 35.0936 54.0273 34.931C53.2752 34.7259 52.6051 34.2935 52.11 33.6939C44.7568 24.8588 42.6302 19.027 43.0877 16.4892C43.1887 16.1277 43.2507 15.5683 44.4276 14.8994C44.8425 14.6644 45.3056 14.5248 45.7828 14.4909C46.2599 14.4569 46.7391 14.5295 47.1853 14.7033L47.229 14.7156ZM48.8011 8.91942C47.5773 8.53163 46.2869 8.39954 45.0113 8.53148C43.7357 8.66342 42.5026 9.05654 41.3897 9.68603C31.4414 15.3713 40.4818 29.136 47.447 37.5042C49.0486 39.4281 51.3237 40.6789 53.812 41.0036C56.3003 41.3283 58.8159 40.7027 60.8499 39.2532L63.8598 37.0855C64.9302 36.3204 65.834 35.3488 66.5175 34.2284C67.201 33.108 67.6502 31.8616 67.8384 30.5634C68.0267 29.2652 67.9501 27.9415 67.6133 26.6711C67.2765 25.4006 66.6864 24.2092 65.8779 23.1678C61.4649 17.4767 55.0837 10.6746 48.8011 8.91942Z" fill="white"/>
<path d="M19.1148 81.4336C19.1148 81.4336 5.90817 93.5507 11.6381 102.571C17.3681 111.592 28.5459 97.2872 28.5459 97.2872L39.7783 86.1618L30.9695 71.2303C26.8209 74.3992 22.8626 77.8061 19.1148 81.4336Z" fill="white"/>
<path d="M65.9616 65.9691L62.9151 65.118C59.3245 64.1149 55.6081 66.1859 54.6142 69.7436C53.6203 73.3013 55.7253 76.9986 59.3158 78.0016L62.3623 78.8527C65.9529 79.8558 69.6693 77.7849 70.6632 74.2271C71.6571 70.6694 69.5521 66.9721 65.9616 65.9691Z" fill="#FFD2D2"/>
<path d="M137.924 86.0728L134.878 85.2217C131.287 84.2187 127.571 86.2896 126.577 89.8474C125.583 93.4051 127.688 97.1023 131.278 98.1054L134.325 98.9565C137.916 99.9596 141.632 97.8886 142.626 94.3309C143.62 90.7732 141.515 87.0759 137.924 86.0728Z" fill="#FFD2D2"/>
</g>
<defs>
<clipPath id="clip0_33_2835">
<rect width="181" height="129" fill="white"/>
</clipPath>
</defs>
</svg>
