<svg width="118" height="118" viewBox="0 0 118 118" fill="none" xmlns="http://www.w3.org/2000/svg">
<g id="Group 237817">
<circle id="Ellipse 462" cx="59" cy="59" r="59" fill="#173A52"/>
<g id="Group 698">
<path id="Vector" d="M42.8559 59.3706V50.0038L23.1785 69.6521L27.8273 74.3904L42.8559 59.3706ZM87.694 53.5163C86.2361 46.1985 80.7253 40.7101 80.0926 40.0606L66.5678 26.3397L58.8381 34.0509L58.2879 34.5997V43.9666L66.5403 35.734L74.2334 43.5366L75.4071 44.7258L75.4896 44.8081C75.4896 44.8081 76.0031 45.3112 76.7092 46.1527C78.8748 48.6353 80.4123 51.5995 81.193 54.7969C82.2933 60.2853 82.8435 66.7524 76.7092 74.6008V84.2787C77.2868 83.7756 77.626 83.4188 77.7819 83.2907C83.2835 77.9121 86.5753 72.4787 87.8682 66.6701C88.7628 62.3248 88.7066 57.838 87.7032 53.5163H87.694ZM46.7253 82.4309L46.5236 82.3303H46.4228C45.8234 82.0179 45.2527 81.6537 44.7173 81.2418C44.213 80.885 43.5986 80.4093 42.8834 79.7965C41.7647 78.8817 40.3709 77.6377 38.6746 75.9821L34.8694 72.1036L30.1747 76.787L33.9616 80.638V80.6929C39.8209 86.4008 42.8284 88.0108 43.9379 88.4773C47.4511 90.2036 51.2583 91.2555 55.1612 91.5782C56.9546 91.7178 58.7574 91.6811 60.5436 91.4684L60.9745 91.4227V84.7086C56.1058 85.4779 51.118 84.6801 46.7345 82.4309H46.7253Z" fill="#F4F4F4"/>
<path id="Vector_2" d="M54.9775 37.912V77.9039H46.1841V46.6933L47.0643 45.8152L47.5411 45.3396L50.2003 42.6869L51.9974 40.894L52.5843 40.3086L54.3906 38.5065L54.9775 37.912Z" fill="#F4F4F4"/>
<path id="Vector_3" d="M73.3898 46.8473V86.7478L73.2798 86.8301C72.8763 87.0862 72.4453 87.3515 71.9869 87.6076C71.8402 87.6991 71.6843 87.7814 71.5284 87.8638C71.1249 88.0924 70.694 88.3211 70.2538 88.5406C69.8137 88.7602 69.4194 88.9432 68.9793 89.1352L68.2549 89.4463L67.2646 89.8304L66.4577 90.114C65.9075 90.2969 65.3391 90.4707 64.7522 90.6262L64.3213 90.736V46.8473H73.3898Z" fill="#F4F4F4"/>
<path id="Vector_4" d="M64.3214 57.3943H54.9778V66.4502H64.3214V57.3943Z" fill="#F4F4F4"/>
</g>
</g>
</svg>
