<svg width="250" height="225" viewBox="0 0 250 225" fill="none" xmlns="http://www.w3.org/2000/svg">
<g clip-path="url(#clip0_17_498)">
<path d="M209.953 162.998C209.953 162.998 232.639 148.781 226.956 134.147C221.274 119.512 200.953 137.219 200.953 137.219L187.822 146.514L189.943 174.672C196.83 171.169 203.511 167.271 209.953 162.998Z" fill="#EFEFEF"/>
<path d="M154.506 196.832L184.422 199.817L183.901 205.039C183.503 209.028 181.546 212.696 178.459 215.236C175.372 217.777 171.41 218.982 167.443 218.586C163.476 218.19 159.829 216.226 157.305 213.126C154.782 210.025 153.587 206.042 153.985 202.054L154.506 196.832Z" fill="#EFEFEF"/>
<path d="M41.9667 185.603L71.9936 188.599L71.4814 193.731C71.2832 195.718 70.6977 197.646 69.7583 199.406C68.819 201.167 67.5443 202.724 66.0069 203.989C64.4695 205.255 62.6995 206.204 60.7981 206.782C58.8967 207.36 56.901 207.556 54.925 207.359C50.9477 206.944 47.2974 204.962 44.7729 201.847C42.2484 198.731 41.0553 194.736 41.4545 190.735L41.9667 185.603Z" fill="black"/>
<path d="M167.09 49.1668C167.09 49.1668 209.497 21.9824 221.462 40.4394C235.218 61.6216 182.083 78.3828 182.083 78.3828L167.09 49.1668Z" fill="#FFCACA"/>
<path d="M209.315 43.1249C212.71 43.4637 213.633 44.7728 213.975 45.3928C214.367 45.8303 214.632 46.3682 214.741 46.9476C214.849 47.5269 214.796 48.1252 214.588 48.6768C213.153 52.7254 203.37 60.9215 186.47 67.4384L178.973 52.7177C188.562 47.5897 201.458 42.341 209.381 43.1315L209.315 43.1249ZM210.272 34.2058C193.25 32.5073 167.149 49.2392 167.149 49.2392L182.165 78.4575C182.165 78.4575 235.388 61.7051 221.544 40.514C220.288 38.6542 218.617 37.1155 216.663 36.0207C214.71 34.9259 212.529 34.3051 210.294 34.208L210.272 34.2058Z" fill="black"/>
<path d="M181.867 41.0181C186.433 35.6699 190.123 29.6249 192.798 23.1107C193.155 22.2753 193.25 21.351 193.073 20.4604C192.895 19.5697 192.452 18.7546 191.803 18.1229C191.154 17.4913 190.33 17.073 189.438 16.9233C188.547 16.7737 187.631 16.8997 186.812 17.2849C179.493 20.5686 172.65 24.8365 166.472 29.9716C155.472 39.8042 181.867 41.0181 181.867 41.0181Z" fill="#FFC145"/>
<path d="M156.242 212.014C149.7 213.017 143.099 213.578 136.484 213.694C126.363 213.914 116.239 213.49 106.173 212.427C97.4162 211.592 88.7099 210.295 80.0899 208.54C15.9105 195.375 21.2805 163.796 21.2805 163.796C21.2805 163.796 24.0482 136.059 25.9586 124.102C29.2258 102.596 34.3393 81.4129 41.2417 60.7899C44.8842 50.4852 51.1663 41.3266 59.4533 34.2394C67.7403 27.1522 77.7387 22.3873 88.4384 20.4263C104.002 17.5615 119.947 17.5192 135.52 20.3015C144.263 21.8559 152.828 24.2885 161.087 27.5628L161.309 27.585C171.411 31.5864 180.281 38.1987 187.023 46.7539C193.765 55.3092 198.14 65.5043 199.705 76.3092C200.629 84.4752 201.111 92.6861 201.151 100.906C201.821 128.783 200.661 167.587 199.258 181.645C199.265 181.579 198.38 205.266 156.242 212.014Z" fill="white"/>
<path d="M136.482 213.717C126.361 213.936 116.237 213.513 106.17 212.45C97.4139 211.615 88.7076 210.317 80.0876 208.562C15.9082 195.397 21.2783 163.819 21.2783 163.819C21.2783 163.819 24.046 136.082 25.9563 124.125C25.9563 124.125 75.1619 123.153 81.577 160.393C82.0869 163.603 83.0265 166.73 84.3704 169.686C95.5236 193.809 128.921 178.752 136.34 212.891C136.41 213.162 136.457 213.438 136.482 213.717Z" fill="black"/>
<path d="M201.912 95.1127C184.061 84.3251 188.366 57.1731 165.212 54.8627C137.562 52.1036 141.138 20.6258 141.138 20.6258C149.225 22.0636 157.148 24.3139 164.786 27.3427L164.991 27.3632C174.336 31.0646 182.54 37.1814 188.776 45.0954C195.012 53.0095 199.058 62.4406 200.505 72.4358C201.38 79.9634 201.85 87.5333 201.912 95.1127Z" fill="black"/>
<path d="M162.63 181.913L160.813 200.121C160.387 204.428 158.807 208.538 156.241 212.015C139.634 214.28 122.81 214.418 106.173 212.428C97.4161 211.593 88.7098 210.295 80.0899 208.541L83.5345 174.02C83.6769 172.56 83.956 171.117 84.3681 169.709C85.9486 164.276 89.3644 159.565 94.0266 156.39C98.6887 153.214 104.305 151.772 109.908 152.312L140.977 155.413C147.345 156.042 153.201 159.186 157.26 164.154C161.32 169.123 163.251 175.509 162.63 181.913Z" fill="#FFCACA"/>
<path d="M167.434 96.7183C172.876 97.2614 177.73 93.2658 178.276 87.794C178.822 82.3222 174.853 77.4462 169.411 76.9032C163.969 76.3601 159.115 80.3557 158.569 85.8275C158.023 91.2993 161.992 96.1753 167.434 96.7183Z" fill="black"/>
<path d="M88.3162 88.8238C93.7582 89.3668 98.6124 85.3713 99.1584 79.8995C99.7044 74.4277 95.7354 69.5517 90.2934 69.0086C84.8514 68.4656 79.9972 72.4612 79.4512 77.933C78.9052 83.4048 82.8742 88.2808 88.3162 88.8238Z" fill="black"/>
<path d="M159.241 112.103C160.437 100.121 151.533 85.1243 128.808 82.8567C106.082 80.589 94.7905 93.5702 93.5948 105.553C92.3991 117.536 101.776 123.97 124.479 126.236C147.182 128.501 158.048 124.064 159.241 112.103Z" fill="#FFCACA"/>
<path d="M119.769 107.399C121.645 107.586 123.371 105.67 123.626 103.119C123.88 100.568 122.566 98.3482 120.691 98.1611C118.816 97.974 117.089 99.8903 116.835 102.441C116.58 104.992 117.894 107.212 119.769 107.399Z" fill="black"/>
<path d="M139.543 109.372C141.418 109.559 143.145 107.643 143.4 105.092C143.654 102.541 142.34 100.321 140.465 100.134C138.59 99.9466 136.863 101.863 136.609 104.414C136.354 106.965 137.668 109.185 139.543 109.372Z" fill="black"/>
<path d="M68.1781 32.9855C63.8699 25.7674 60.6913 17.9253 58.7535 9.73391C58.5693 8.84458 58.6581 7.91968 59.0083 7.08167C59.3585 6.24367 59.9535 5.53208 60.7145 5.04115C61.4755 4.55022 62.3666 4.30312 63.2699 4.33252C64.1731 4.36192 65.0458 4.66645 65.7726 5.20581C71.2819 9.29379 75.8218 12.0906 80.629 18.4974C89.4671 30.3321 68.1781 32.9855 68.1781 32.9855Z" fill="#FFC145"/>
<path d="M68.613 47.2732C69.9749 45.8705 71.0428 44.2073 71.7533 42.3824C72.4638 40.5574 72.8025 38.6079 72.7491 36.6497C72.6957 34.6914 72.2514 32.7643 71.4425 30.9829C70.6337 29.2015 69.4768 27.602 68.0406 26.2796C57.0137 16.1646 39.8266 3.76731 29.0421 12.7875C16.0264 23.7261 32.6191 41.6307 44.8399 52.1352C47.6476 54.5552 51.2674 55.809 54.9641 55.6421C58.6608 55.4752 62.1573 53.9001 64.7434 51.2366L68.613 47.2732Z" fill="#FFCACA"/>
<path d="M38.7653 18.6702C44.3136 19.2239 52.7831 24.4186 62.0018 32.8882C62.5576 33.3991 63.005 34.0177 63.3172 34.7069C63.6293 35.396 63.7998 36.1416 63.8184 36.8989C63.837 37.6563 63.7034 38.4097 63.4255 39.1142C63.1476 39.8187 62.7311 40.4597 62.2011 40.9987L58.3759 44.9666C57.7785 45.5834 57.0491 46.0552 56.2432 46.3458C55.4374 46.6364 54.5763 46.7383 53.7258 46.6435C52.5819 46.5366 51.5 46.0741 50.6302 45.3205C37.7283 34.2297 33.1723 26.2028 33.198 22.3516C33.2537 21.7937 33.2029 20.9548 34.7435 19.6662C35.287 19.2131 35.9242 18.8878 36.6086 18.7143C37.293 18.5408 38.0072 18.5235 38.6988 18.6636L38.7653 18.6702ZM39.5894 9.73786C37.7147 9.48441 35.8076 9.62432 33.9884 10.1487C32.1693 10.6732 30.4775 11.5707 29.0199 12.7848C16.0042 23.7234 32.5969 41.628 44.8177 52.1325C47.6277 54.5474 51.2464 55.798 54.9415 55.6311C58.6367 55.4643 62.1324 53.8925 64.7212 51.2339L68.5464 47.266C69.9083 45.8634 70.9762 44.2002 71.6867 42.3753C72.3972 40.5503 72.7359 38.6008 72.6825 36.6426C72.6291 34.6843 72.1848 32.7572 71.3759 30.9758C70.5671 29.1943 69.4102 27.5949 67.974 26.2724C60.1332 19.0446 49.1545 10.6923 39.5894 9.73786Z" fill="white"/>
<path d="M14.7308 124.086C14.7308 124.086 -1.3975 145.328 9.19386 157.113C19.7852 168.897 32.4167 144.961 32.4167 144.961L45.9277 125.689L29.3778 106.008C24.1509 111.743 19.2603 117.78 14.7308 124.086Z" fill="white"/>
<path d="M131.079 197.108C130.787 197.081 130.503 196.996 130.243 196.858C129.984 196.72 129.755 196.532 129.568 196.304L120.694 185.277C120.373 184.814 120.238 184.246 120.315 183.686C120.393 183.127 120.678 182.617 121.113 182.259C121.548 181.901 122.101 181.722 122.661 181.756C123.222 181.79 123.749 182.035 124.137 182.443L133.022 193.358C133.209 193.587 133.35 193.85 133.435 194.133C133.521 194.416 133.55 194.714 133.52 195.008C133.491 195.303 133.404 195.589 133.264 195.849C133.124 196.11 132.935 196.34 132.706 196.527C132.487 196.728 132.23 196.883 131.95 196.982C131.671 197.082 131.375 197.125 131.079 197.108Z" fill="#FF8D8D"/>
<path d="M121.181 196.121C120.742 196.075 120.327 195.9 119.987 195.617C119.648 195.334 119.4 194.956 119.274 194.531C119.149 194.106 119.152 193.653 119.282 193.229C119.413 192.805 119.665 192.43 120.008 192.15L130.875 183.206C131.332 182.831 131.918 182.654 132.504 182.713C133.09 182.771 133.63 183.061 134.004 183.518C134.375 183.977 134.551 184.566 134.492 185.155C134.433 185.745 134.145 186.287 133.69 186.664L122.821 195.631C122.593 195.817 122.331 195.956 122.049 196.04C121.768 196.124 121.473 196.152 121.181 196.121Z" fill="#FF8D8D"/>
<path d="M75.311 87.5257L70.6727 87.0629C65.2062 86.5174 60.3306 90.526 59.7828 96.0163C59.2349 101.507 63.2223 106.399 68.6888 106.945L73.3271 107.408C78.7936 107.953 83.6692 103.945 84.2171 98.4544C84.7649 92.9641 80.7775 88.0712 75.311 87.5257Z" fill="#FFD2D2"/>
<path d="M184.877 98.4585L180.239 97.9956C174.772 97.4501 169.897 101.459 169.349 106.949C168.801 112.439 172.788 117.332 178.255 117.878L182.893 118.341C188.36 118.886 193.235 114.877 193.783 109.387C194.331 103.897 190.343 99.0039 184.877 98.4585Z" fill="#FFD2D2"/>
</g>
<defs>
<clipPath id="clip0_17_498">
<rect width="230.753" height="202.858" fill="white" transform="translate(20.1422) rotate(5.69839)"/>
</clipPath>
</defs>
</svg>
