<svg width="60" height="60" viewBox="0 0 60 60" fill="none" xmlns="http://www.w3.org/2000/svg">
<path d="M17.0242 0.750481L11.3032 10.2306C11.1741 10.471 10.9545 10.653 10.7285 10.7765L0.784538 16.2279C-0.261517 16.8062 -0.261517 18.2553 0.784538 18.866L10.6963 24.35C10.9481 24.4735 11.1419 24.6815 11.2711 24.8959L17.0179 34.3435C17.6184 35.3441 19.1486 35.3441 19.7814 34.3435L25.5026 24.8634C25.6318 24.6229 25.8511 24.441 26.0771 24.3175L36.0213 18.866C37.0674 18.2877 37.0674 16.8387 36.0213 16.2279L26.0771 10.7765C25.8253 10.653 25.6318 10.445 25.5026 10.2306L19.7814 0.750481C19.1486 -0.25016 17.6184 -0.25016 17.0179 0.750481L17.0242 0.750481Z" fill="white"/>
<path d="M47.0988 37.3007L43.6431 43.5453C43.5645 43.7038 43.4338 43.8226 43.2963 43.9018L37.2819 47.4928C36.6471 47.8691 36.6471 48.8263 37.2819 49.229L43.2765 52.8398C43.4271 52.919 43.545 53.0577 43.6236 53.1963L47.0988 59.4212C47.4653 60.0813 48.3879 60.0813 48.7675 59.4212L52.2232 53.1765C52.3018 53.0181 52.4325 52.8992 52.57 52.82L58.5844 49.229C59.2192 48.8527 59.2192 47.8955 58.5844 47.4928L52.57 43.9018C52.4194 43.8226 52.3018 43.684 52.2232 43.5453L48.7675 37.3007C48.3814 36.6405 47.4587 36.6405 47.0988 37.3007Z" fill="white"/>
</svg>
