<svg width="128" height="128" viewBox="0 0 128 128" fill="none" xmlns="http://www.w3.org/2000/svg">
<path d="M72.0385 87.3895L39.3009 56.7453L62.6315 30.9847L96.3424 61.6358L72.0385 87.3895ZM24.4429 116.866C23.4312 117.857 22.0811 118.427 20.6654 118.461C19.2497 118.495 17.8739 117.99 16.8162 117.048C15.7585 116.106 15.0977 114.798 14.9673 113.388C14.8369 111.978 15.2468 110.571 16.1139 109.452L52.8873 69.4629L60.4534 76.5452L24.4429 116.866Z" fill="url(#paint0_linear_17_452)"/>
<path d="M66.8908 27.0314L36.0977 61.6208C35.7402 62.0228 35.3071 62.3503 34.8229 62.5848C34.3388 62.8192 33.8132 62.956 33.2761 62.9872C32.7391 63.0183 32.2012 62.9434 31.6932 62.7665C31.1852 62.5897 30.717 62.3144 30.3154 61.9565L21.6681 54.2583C21.2661 53.9008 20.9385 53.4676 20.7041 52.9835C20.4696 52.4993 20.3329 51.9737 20.3017 51.4367C20.2705 50.8997 20.3455 50.3618 20.5223 49.8538C20.6992 49.3458 20.9744 48.8776 21.3323 48.476L52.1254 13.8865C52.4829 13.4846 52.9161 13.157 53.4002 12.9225C53.8844 12.6881 54.41 12.5514 54.947 12.5202C55.484 12.489 56.0219 12.564 56.5299 12.7408C57.0379 12.9177 57.5061 13.1929 57.9077 13.5508L66.5551 21.2491C66.957 21.6065 67.2846 22.0397 67.5191 22.5239C67.7535 23.008 67.8902 23.5336 67.9214 24.0706C67.9526 24.6077 67.8776 25.1455 67.7008 25.6536C67.524 26.1616 67.2487 26.6298 66.8908 27.0314ZM114.116 63.5896L105.468 55.8913C105.067 55.5334 104.598 55.2582 104.09 55.0813C103.582 54.9045 103.044 54.8295 102.507 54.8607C101.97 54.8919 101.445 55.0286 100.961 55.2631C100.477 55.4975 100.043 55.8251 99.6859 56.2271L68.8928 90.8165C68.5349 91.2181 68.2597 91.6863 68.0828 92.1943C67.906 92.7023 67.831 93.2402 67.8622 93.7772C67.8934 94.3142 68.0301 94.8398 68.2645 95.324C68.499 95.8081 68.8266 96.2413 69.2285 96.5988L77.8759 104.297C78.2775 104.655 78.7457 104.93 79.2537 105.107C79.7617 105.284 80.2996 105.359 80.8366 105.328C81.3737 105.296 81.8993 105.16 82.3834 104.925C82.8675 104.691 83.3007 104.363 83.6582 103.961L114.451 69.3719C114.809 68.9703 115.084 68.5021 115.261 67.9941C115.438 67.4861 115.513 66.9482 115.482 66.4112C115.451 65.8741 115.314 65.3485 115.08 64.8644C114.845 64.3802 114.518 63.9471 114.116 63.5896Z" fill="#9EE7E5"/>
<path d="M64.3739 54.749L66.6886 52.2026L56.5311 52.7245L56.6128 55.1513L64.3739 54.749ZM77.9022 64.1397C79.3178 61.7932 79.1892 58.9514 79.1792 58.6199L78.9256 51.5771L74.9372 51.7802L74.6534 51.7946L72.3387 54.3411L76.5967 54.1243L76.7414 58.1297L76.7638 58.7405L76.7657 58.7831C76.7657 58.7831 76.7798 59.0456 76.762 59.4473C76.7321 60.6526 76.4139 61.8351 75.8341 62.8955C74.7743 64.6571 73.3244 66.55 69.732 67.1811L67.3405 69.8121C67.6205 69.8168 67.8 69.8029 67.8737 69.8063C70.6852 69.6916 72.9149 69.0207 74.6986 67.7583C76.0135 66.7961 77.1071 65.5626 77.9047 64.1419L77.9022 64.1397ZM59.7179 61.9658L59.6884 61.8891L59.6613 61.8644C59.577 61.6327 59.5132 61.3939 59.4707 61.1507C59.423 60.9302 59.375 60.6504 59.3337 60.3086C59.2584 59.786 59.1902 59.1064 59.1423 58.2408L59.0754 56.2544L56.6531 56.3778L56.7218 58.3522L56.7082 58.3671C56.8765 61.354 57.289 62.5283 57.4727 62.9268C57.9927 64.2566 58.7587 65.4751 59.7305 66.5188C60.1793 66.996 60.6741 67.4276 61.2079 67.8072L61.3354 67.9004L62.9945 66.0751C61.4925 65.0918 60.3457 63.6532 59.7204 61.9681L59.7179 61.9658Z" fill="black"/>
<path d="M72.9434 51.8853L63.0607 62.7574L60.6913 60.6036L68.4039 52.1188L68.8581 52.0957L69.1041 52.0832L70.4762 52.0133L71.4035 51.9661L71.7063 51.9507L72.6383 51.9032L72.9434 51.8853Z" fill="black"/>
<path d="M75.696 58.8241L65.836 69.6713L65.786 69.6667C65.614 69.6375 65.4323 69.6041 65.2455 69.5614C65.1833 69.5504 65.121 69.5346 65.0586 69.5188C64.8934 69.4821 64.7208 69.4387 64.5479 69.3906C64.3751 69.3425 64.2236 69.2956 64.0576 69.2401L63.7855 69.1472L63.4238 69.0091L63.1363 68.8885C62.9428 68.8035 62.7467 68.7115 62.5501 68.6101L62.4069 68.5344L73.2525 56.603L75.696 58.8241Z" fill="black"/>
<path d="M70.6461 59.4699L68.1285 57.1814L65.8906 59.6433L68.4083 61.9318L70.6461 59.4699Z" fill="black"/>
<defs>
<linearGradient id="paint0_linear_17_452" x1="84.4995" y1="138.272" x2="13.4875" y2="124.523" gradientUnits="userSpaceOnUse">
<stop stop-color="#FCFCD1"/>
<stop offset="0.494792" stop-color="#B2E7DD"/>
<stop offset="0.989583" stop-color="#76D6E6"/>
</linearGradient>
</defs>
</svg>
