<svg xmlns="http://www.w3.org/2000/svg" width="219" height="205" viewBox="0 0 219 205" fill="none">
<g clip-path="url(#clip0_695_1111)">
<path d="M178.952 162.997C178.952 162.997 201.639 148.78 195.956 134.146C190.274 119.511 169.953 137.218 169.953 137.218L156.822 146.513L158.943 174.671C165.83 171.168 172.511 167.27 178.952 162.997Z" fill="#EFEFEF"/>
<path d="M123.506 196.831L153.422 199.816L152.901 205.038C152.503 209.027 150.546 212.695 147.459 215.235C144.372 217.776 140.41 218.981 136.443 218.585C132.476 218.189 128.829 216.225 126.305 213.125C123.782 210.024 122.587 206.041 122.985 202.053L123.506 196.831Z" fill="#EFEFEF"/>
<path d="M10.9666 185.602L40.9934 188.598L40.4813 193.73C40.2831 195.717 39.6976 197.645 38.7582 199.405C37.8189 201.166 36.5441 202.723 35.0067 203.988C33.4693 205.254 31.6994 206.203 29.798 206.781C27.8965 207.359 25.9009 207.555 23.9249 207.358C19.9476 206.943 16.2973 204.961 13.7728 201.846C11.2483 198.73 10.0552 194.735 10.4544 190.734L10.9666 185.602Z" fill="black"/>
<path d="M136.09 49.1659C136.09 49.1659 178.497 21.9816 190.462 40.4385C204.218 61.6207 151.083 78.382 151.083 78.382L136.09 49.1659Z" fill="#FFCACA"/>
<path d="M178.315 43.1238C181.71 43.4626 182.633 44.7717 182.975 45.3917C183.367 45.8292 183.632 46.3671 183.741 46.9465C183.849 47.5259 183.796 48.1242 183.588 48.6757C182.153 52.7243 172.37 60.9204 155.47 67.4373L147.973 52.7167C157.562 47.5887 170.458 42.3399 178.381 43.1305L178.315 43.1238ZM179.272 34.2047C162.25 32.5062 136.149 49.2381 136.149 49.2381L151.165 78.4564C151.165 78.4564 204.388 61.704 190.544 40.5129C189.288 38.6531 187.617 37.1144 185.663 36.0196C183.71 34.9248 181.529 34.3041 179.294 34.2069L179.272 34.2047Z" fill="black"/>
<path d="M150.866 41.0171C155.433 35.6689 159.123 29.6239 161.798 23.1097C162.154 22.2743 162.25 21.3501 162.072 20.4594C161.895 19.5687 161.452 18.7536 160.803 18.122C160.154 17.4903 159.329 17.072 158.438 16.9223C157.547 16.7727 156.631 16.8988 155.812 17.2839C148.493 20.5676 141.65 24.8355 135.472 29.9706C124.472 39.8032 150.866 41.0171 150.866 41.0171Z" fill="#FFC145"/>
<path d="M125.241 212.013C118.7 213.017 112.099 213.578 105.484 213.693C95.3631 213.913 85.2391 213.49 75.1726 212.426C66.416 211.591 57.7097 210.294 49.0898 208.539C-15.0896 195.374 -9.71959 163.795 -9.71959 163.795C-9.71959 163.795 -6.9519 136.058 -5.04157 124.102C-1.77435 102.595 3.33914 81.412 10.2416 60.789C13.8841 50.4843 20.1661 41.3257 28.4532 34.2385C36.7402 27.1513 46.7386 22.3865 57.4383 20.4254C73.002 17.5606 88.9472 17.5184 104.52 20.3006C113.263 21.855 121.828 24.2876 130.086 27.562L130.308 27.5841C140.411 31.5855 149.281 38.1978 156.023 46.753C162.765 55.3083 167.14 65.5034 168.705 76.3083C169.629 84.4743 170.111 92.6852 170.151 100.905C170.821 128.782 169.661 167.587 168.258 181.645C168.265 181.578 167.38 205.265 125.241 212.013Z" fill="white"/>
<path d="M105.482 213.716C95.3609 213.935 85.2369 213.512 75.1704 212.449C66.4138 211.614 57.7075 210.316 49.0876 208.562C-15.0919 195.396 -9.7218 163.818 -9.7218 163.818C-9.7218 163.818 -6.9541 136.081 -5.04378 124.124C-5.04378 124.124 44.1619 123.152 50.577 160.392C51.0869 163.602 52.0265 166.729 53.3703 169.685C64.5236 193.808 97.9209 178.751 105.34 212.89C105.41 213.161 105.457 213.437 105.482 213.716Z" fill="black"/>
<path d="M170.912 95.1116C153.061 84.3241 157.366 57.1721 134.212 54.8616C106.562 52.1026 110.138 20.6248 110.138 20.6248C118.225 22.0626 126.148 24.3128 133.786 27.3417L133.991 27.3622C143.336 31.0636 151.54 37.1803 157.776 45.0944C164.012 53.0085 168.058 62.4396 169.505 72.4348C170.38 79.9623 170.85 87.5323 170.912 95.1116Z" fill="black"/>
<path d="M131.63 181.912L129.813 200.12C129.387 204.427 127.807 208.537 125.241 212.014C108.634 214.279 91.8102 214.418 75.1727 212.427C66.4161 211.592 57.7098 210.294 49.0899 208.54L52.5345 174.019C52.6769 172.559 52.956 171.116 53.3681 169.708C54.9486 164.275 58.3644 159.565 63.0266 156.389C67.6887 153.213 73.3052 151.771 78.9075 152.311L109.977 155.412C116.345 156.041 122.201 159.185 126.26 164.153C130.32 169.122 132.251 175.508 131.63 181.912Z" fill="#FFCACA"/>
<path d="M136.433 96.7173C141.875 97.2604 146.73 93.2648 147.276 87.793C147.822 82.3212 143.853 77.4452 138.411 76.9022C132.969 76.3592 128.115 80.3547 127.569 85.8265C127.022 91.2983 130.991 96.1743 136.433 96.7173Z" fill="black"/>
<path d="M57.3162 88.8228C62.7582 89.3658 67.6124 85.3703 68.1584 79.8985C68.7044 74.4267 64.7354 69.5507 59.2934 69.0077C53.8514 68.4646 48.9972 72.4602 48.4512 77.932C47.9052 83.4038 51.8742 88.2798 57.3162 88.8228Z" fill="black"/>
<path d="M128.241 112.102C129.437 100.12 120.533 85.1233 97.8078 82.8557C75.0823 80.588 63.7905 93.5691 62.5947 105.552C61.399 117.535 70.7759 123.969 93.4792 126.235C116.182 128.5 127.048 124.063 128.241 112.102Z" fill="#FFCACA"/>
<path d="M88.7693 107.398C90.6446 107.585 92.3712 105.669 92.6257 103.118C92.8803 100.567 91.5664 98.3472 89.6912 98.1601C87.8159 97.973 86.0893 99.8893 85.8347 102.44C85.5802 104.991 86.894 107.211 88.7693 107.398Z" fill="black"/>
<path d="M108.543 109.371C110.418 109.558 112.145 107.642 112.399 105.091C112.654 102.54 111.34 100.32 109.465 100.133C107.59 99.9456 105.863 101.862 105.608 104.413C105.354 106.964 106.668 109.184 108.543 109.371Z" fill="black"/>
<path d="M37.178 32.9845C32.8698 25.7664 29.6912 17.9244 27.7534 9.73292C27.5692 8.8436 27.658 7.91869 28.0082 7.08069C28.3584 6.24269 28.9533 5.5311 29.7143 5.04017C30.4753 4.54924 31.3665 4.30213 32.2697 4.33153C33.173 4.36094 34.0457 4.66547 34.7724 5.20482C40.2818 9.29281 44.8216 12.0896 49.6289 18.4964C58.4669 30.3311 37.178 32.9845 37.178 32.9845Z" fill="#FFC145"/>
<path d="M37.6129 47.2722C38.9748 45.8696 40.0428 44.2064 40.7533 42.3814C41.4638 40.5565 41.8024 38.607 41.749 36.6487C41.6956 34.6904 41.2513 32.7634 40.4425 30.9819C39.6336 29.2005 38.4767 27.6011 37.0405 26.2786C26.0137 16.1637 8.82658 3.76633 -1.95799 12.7866C-14.9736 23.7251 1.61908 41.6297 13.8399 52.1342C16.6476 54.5542 20.2674 55.808 23.9641 55.6411C27.6608 55.4742 31.1572 53.8991 33.7433 51.2356L37.6129 47.2722Z" fill="#FFCACA"/>
<path d="M7.76529 18.6693C13.3135 19.2229 21.7831 24.4176 31.0017 32.8872C31.5576 33.3981 32.005 34.0167 32.3171 34.7059C32.6293 35.3951 32.7998 36.1406 32.8184 36.898C32.837 37.6553 32.7033 38.4088 32.4254 39.1132C32.1475 39.8177 31.7311 40.4587 31.201 40.9977L27.3758 44.9656C26.7785 45.5825 26.049 46.0542 25.2432 46.3448C24.4373 46.6354 23.5762 46.7373 22.7257 46.6426C21.5819 46.5356 20.4999 46.0732 19.6301 45.3195C6.7282 34.2287 2.17226 26.2018 2.19793 22.3506C2.25359 21.7928 2.20284 20.9538 3.74349 19.6652C4.28689 19.2121 4.92417 18.8868 5.60857 18.7133C6.29296 18.5399 7.00712 18.5225 7.69871 18.6626L7.76529 18.6693ZM8.58937 9.73688C6.71459 9.48344 4.8075 9.62334 2.98835 10.1478C1.1692 10.6722 -0.522541 11.5698 -1.9802 12.7839C-14.9958 23.7224 1.59687 41.627 13.8176 52.1315C16.6276 54.5464 20.2463 55.797 23.9415 55.6302C27.6366 55.4633 31.1323 53.8916 33.7211 51.2329L37.5463 47.265C38.9082 45.8624 39.9762 44.1992 40.6867 42.3743C41.3972 40.5493 41.7358 38.5998 41.6824 36.6416C41.629 34.6833 41.1847 32.7562 40.3759 30.9748C39.567 29.1934 38.4101 27.5939 36.9739 26.2715C29.1331 19.0436 18.1545 10.6913 8.58937 9.73688Z" fill="white"/>
<path d="M-16.2693 124.085C-16.2693 124.085 -32.3976 145.327 -21.8063 157.112C-11.2149 168.896 1.41657 144.96 1.41657 144.96L14.9276 125.688L-1.62233 106.007C-6.84919 111.742 -11.7398 117.779 -16.2693 124.085Z" fill="white"/>
<path d="M100.079 197.107C99.7866 197.08 99.5026 196.995 99.2433 196.857C98.984 196.719 98.7544 196.531 98.5677 196.303L89.6939 185.276C89.3729 184.813 89.2377 184.245 89.3153 183.686C89.3929 183.126 89.6776 182.616 90.1125 182.258C90.5474 181.9 91.1005 181.721 91.6612 181.755C92.2219 181.789 92.7489 182.034 93.137 182.442L102.022 193.357C102.209 193.586 102.35 193.849 102.435 194.132C102.521 194.415 102.55 194.713 102.52 195.007C102.491 195.302 102.404 195.588 102.264 195.848C102.124 196.109 101.934 196.339 101.706 196.526C101.486 196.727 101.23 196.882 100.95 196.981C100.671 197.081 100.375 197.124 100.079 197.107Z" fill="#FF8D8D"/>
<path d="M90.1807 196.12C89.742 196.074 89.3267 195.899 88.9874 195.616C88.6481 195.333 88.4 194.955 88.2745 194.53C88.149 194.105 88.1516 193.652 88.2822 193.228C88.4128 192.804 88.6654 192.429 89.008 192.149L99.8746 183.205C100.332 182.83 100.918 182.653 101.504 182.712C102.09 182.77 102.63 183.06 103.004 183.517C103.375 183.976 103.551 184.565 103.492 185.154C103.433 185.744 103.145 186.286 102.69 186.663L91.821 195.63C91.593 195.816 91.3307 195.955 91.0493 196.039C90.7678 196.123 90.4726 196.151 90.1807 196.12Z" fill="#FF8D8D"/>
<path d="M44.311 87.5247L39.6727 87.0619C34.2061 86.5164 29.3305 90.525 28.7827 96.0153C28.2348 101.506 32.2222 106.399 37.6887 106.944L42.327 107.407C47.7935 107.952 52.6692 103.944 53.217 98.4534C53.7648 92.9632 49.7775 88.0702 44.311 87.5247Z" fill="#FFD2D2"/>
<path d="M153.877 98.4576L149.239 97.9948C143.772 97.4493 138.896 101.458 138.349 106.948C137.801 112.438 141.788 117.331 147.255 117.877L151.893 118.34C157.359 118.885 162.235 114.877 162.783 109.386C163.331 103.896 159.343 99.0031 153.877 98.4576Z" fill="#FFD2D2"/>
</g>
<defs>
<clipPath id="clip0_695_1111">
<rect width="230.753" height="202.858" fill="white" transform="translate(-10.8579 -0.000976562) rotate(5.69839)"/>
</clipPath>
</defs>
</svg>