<svg xmlns="http://www.w3.org/2000/svg" width="193" height="115" viewBox="0 0 193 115" fill="none">
<path d="M60.5795 12.2127C50.0507 13.7963 40.2461 17.83 32.1561 23.9063C28.0273 27.5197 18.8353 37.1217 15.0981 46.6228C11.3608 56.1239 9.45552 68.2301 8.97002 73.0956C9.71524 75.1564 12.1781 79.0615 16.068 78.195C20.9304 77.112 21.5891 76.864 22.7784 74.4735C23.9678 72.0829 27.6978 48.857 36.1874 46.364C42.979 44.3696 118.051 53.4193 155.908 58.3103C156.213 65.9051 160.378 83.3628 161.537 86.9914C162.986 91.5271 162.428 92.7995 165.136 93.0698C167.845 93.3401 169.34 92.2347 171.847 89.3482C171.712 82.1892 171.96 69.2978 170.955 62.175C169.286 52.7464 164.853 43.8164 158.105 36.2871C151.357 28.7578 142.533 22.8959 132.524 19.2937L132.305 19.2718C124.123 16.3242 115.648 14.106 107.008 12.6508C91.6184 10.0467 75.8945 9.89838 60.5795 12.2127Z" fill="#F1E1CE" stroke="#DEBA99"/>
<path fill-rule="evenodd" clip-rule="evenodd" d="M155.952 68.249C150.706 65.4655 147.389 59.6957 148.016 53.4081C148.844 45.1136 156.223 39.059 164.497 39.8846C172.771 40.7102 178.808 48.1035 177.98 56.398C177.859 57.6122 177.597 58.7785 177.213 59.8822C180.064 62.5027 181.69 66.3909 181.275 70.5471C181.09 72.4073 180.514 74.1341 179.637 75.6541C181.516 78.129 182.501 81.2955 182.167 84.6349C181.933 86.9854 181.075 89.123 179.775 90.8994C182.709 93.5204 184.393 97.4651 183.972 101.686C183.273 108.69 177.042 113.803 170.055 113.106C163.068 112.409 157.971 106.166 158.669 99.1613C158.904 96.8108 159.762 94.6733 161.062 92.8968C158.128 90.2758 156.444 86.3312 156.865 82.1101C157.05 80.2499 157.626 78.5231 158.503 77.0031C156.667 74.5843 155.685 71.5049 155.952 68.249Z" fill="#F1E1CE"/>
<path d="M155.952 68.249L156.451 68.29L156.478 67.9617L156.187 67.8074L155.952 68.249ZM177.213 59.8822L176.741 59.7178L176.633 60.028L176.875 60.2503L177.213 59.8822ZM179.637 75.6541L179.204 75.4043L179.038 75.692L179.239 75.9564L179.637 75.6541ZM179.775 90.8994L179.372 90.6041L179.104 90.9701L179.442 91.2723L179.775 90.8994ZM161.062 92.8968L161.465 93.1921L161.733 92.8261L161.395 92.524L161.062 92.8968ZM158.503 77.0031L158.936 77.2528L159.102 76.9652L158.901 76.7008L158.503 77.0031ZM147.519 53.3584C146.871 59.8544 150.298 65.815 155.718 68.6907L156.187 67.8074C151.114 65.1159 147.907 59.537 148.514 53.4577L147.519 53.3584ZM164.546 39.3871C155.996 38.5339 148.374 44.7903 147.519 53.3584L148.514 53.4577C149.314 45.4369 156.449 39.584 164.447 40.3821L164.546 39.3871ZM178.477 56.4476C179.332 47.8795 173.097 40.2402 164.546 39.3871L164.447 40.3821C172.445 41.1802 178.283 48.3275 177.482 56.3483L178.477 56.4476ZM177.685 60.0465C178.082 58.906 178.352 57.7013 178.477 56.4476L177.482 56.3483C177.365 57.5232 177.112 58.6509 176.741 59.7178L177.685 60.0465ZM176.875 60.2503C179.615 62.7687 181.176 66.5042 180.778 70.4975L181.773 70.5968C182.204 66.2777 180.513 62.2367 177.551 59.514L176.875 60.2503ZM180.778 70.4975C180.6 72.2858 180.046 73.9446 179.204 75.4043L180.071 75.9039C180.982 74.3237 181.58 72.5289 181.773 70.5968L180.778 70.4975ZM179.239 75.9564C181.044 78.3346 181.99 81.3762 181.67 84.5853L182.665 84.6846C183.011 81.2147 181.988 77.9234 180.036 75.3518L179.239 75.9564ZM181.67 84.5853C181.444 86.8446 180.62 88.8978 179.372 90.6041L180.179 91.1947C181.53 89.3482 182.421 87.1263 182.665 84.6846L181.67 84.5853ZM179.442 91.2723C182.262 93.7912 183.879 97.5809 183.474 101.637L184.47 101.736C184.907 97.3493 183.157 93.2496 180.108 90.5265L179.442 91.2723ZM183.474 101.637C182.803 108.367 176.816 113.278 170.105 112.608L170.006 113.603C177.269 114.328 183.743 109.014 184.47 101.736L183.474 101.637ZM170.105 112.608C163.394 111.939 158.495 105.942 159.167 99.211L158.172 99.1117C157.446 106.39 162.743 112.879 170.006 113.603L170.105 112.608ZM159.167 99.211C159.392 96.9516 160.216 94.8985 161.465 93.1921L160.658 92.6016C159.307 94.4481 158.416 96.67 158.172 99.1117L159.167 99.211ZM161.395 92.524C158.575 90.0051 156.958 86.2153 157.362 82.1597L156.367 82.0604C155.93 86.447 157.68 90.5466 160.729 93.2697L161.395 92.524ZM157.362 82.1597C157.541 80.3714 158.094 78.7126 158.936 77.2528L158.07 76.7533C157.158 78.3335 156.56 80.1283 156.367 82.0604L157.362 82.1597ZM158.901 76.7008C157.137 74.3764 156.194 71.4184 156.451 68.29L155.454 68.2081C155.176 71.5913 156.197 74.7921 158.104 77.3054L158.901 76.7008Z" fill="#DEBA99"/>
<path d="M141.068 57.8856C152.696 59.046 163.103 50.1702 164.311 38.0609C165.519 25.9517 157.072 15.1946 145.443 14.0342L64.527 5.95996L62.3391 27.8857L60.1513 49.8114L141.068 57.8856Z" fill="#F1E1CE" stroke="#DEBA99"/>
<ellipse cx="59.9026" cy="27.6433" rx="18.8868" ry="22.0346" transform="rotate(5.69839 59.9026 27.6433)" fill="#F1E1CE" stroke="#DEBA99"/>
<ellipse cx="59.9029" cy="27.6411" rx="13.4906" ry="15.739" transform="rotate(5.69839 59.9029 27.6411)" fill="#EBD0B7"/>
<ellipse cx="59.5326" cy="27.9568" rx="9.10613" ry="10.4927" transform="rotate(5.69839 59.5326 27.9568)" fill="#E3C3A6"/>
<path fill-rule="evenodd" clip-rule="evenodd" d="M38.4546 54.1034C45.9356 52.5013 51.6024 47.415 52.2544 40.8813C53.1144 32.2621 44.9217 24.3878 33.9555 23.2935C22.9892 22.1992 13.4021 28.2994 12.542 36.9186C12.4161 38.1807 12.4842 39.4269 12.7268 40.6382C8.40253 42.6342 5.37669 46.2041 4.94573 50.5231C4.64462 53.5406 5.65747 56.45 7.60644 58.8882C3.13403 60.8578 -0.0128228 64.4876 -0.452976 68.8986C-0.692486 71.2989 -0.10063 73.6307 1.13242 75.7114C-0.487454 77.5074 -1.52841 79.6763 -1.76792 82.0765C-2.4942 89.355 4.42407 96.0044 13.6845 96.9285C22.9449 97.8525 31.0407 92.7013 31.767 85.4228C32.0065 83.0225 31.4146 80.6907 30.1816 78.61C31.8014 76.814 32.8424 74.6451 33.0819 72.2449C33.383 69.2273 32.3702 66.3179 30.4212 63.8797C34.8143 61.945 37.9284 58.4086 38.4546 54.1034Z" fill="#F1E1CE"/>
<path d="M38.4546 54.1034L38.3499 53.6145L38.0016 53.6891L37.9583 54.0427L38.4546 54.1034ZM12.7268 40.6382L12.9363 41.0921L13.2945 40.9268L13.2171 40.54L12.7268 40.6382ZM7.60644 58.8882L7.80796 59.3458L8.40289 59.0838L7.997 58.576L7.60644 58.8882ZM1.13242 75.7114L1.50371 76.0463L1.75016 75.773L1.56256 75.4565L1.13242 75.7114ZM30.1816 78.61L29.8103 78.2751L29.5638 78.5484L29.7514 78.8649L30.1816 78.61ZM30.4212 63.8797L30.2197 63.4222L29.6248 63.6842L30.0306 64.1919L30.4212 63.8797ZM51.7568 40.8317C51.1331 47.0825 45.6922 52.0421 38.3499 53.6145L38.5593 54.5923C46.179 52.9605 52.0717 47.7476 52.7519 40.9309L51.7568 40.8317ZM33.9058 23.791C44.7156 24.8697 52.579 32.5922 51.7568 40.8317L52.7519 40.9309C53.6499 31.932 45.1279 23.9058 34.0051 22.796L33.9058 23.791ZM13.0395 36.9682C13.8617 28.7288 23.096 22.7124 33.9058 23.791L34.0051 22.796C22.8824 21.6861 12.9424 27.87 12.0445 36.869L13.0395 36.9682ZM13.2171 40.54C12.984 39.3762 12.9186 38.1798 13.0395 36.9682L12.0445 36.869C11.9135 38.1817 11.9845 39.4777 12.2365 40.7363L13.2171 40.54ZM12.5173 40.1842C8.07444 42.2349 4.90093 45.9363 4.4482 50.4734L5.44325 50.5727C5.85245 46.4719 8.73061 43.0334 12.9363 41.0921L12.5173 40.1842ZM4.4482 50.4734C4.13222 53.64 5.19816 56.6762 7.21589 59.2004L7.997 58.576C6.11679 56.2238 5.15702 53.4412 5.44325 50.5727L4.4482 50.4734ZM7.40492 58.4306C2.81208 60.4533 -0.488088 64.2148 -0.950505 68.8489L0.0445535 68.9482C0.462442 64.7603 3.45598 61.2624 7.80796 59.3458L7.40492 58.4306ZM-0.950505 68.8489C-1.20169 71.3662 -0.579281 73.8038 0.702284 75.9663L1.56256 75.4565C0.378019 73.4577 -0.183283 71.2315 0.0445535 68.9482L-0.950505 68.8489ZM0.761136 75.3765C-0.922471 77.2431 -2.01427 79.5096 -2.26545 82.0269L-1.27039 82.1262C-1.04256 79.8429 -0.0524379 77.7716 1.50371 76.0463L0.761136 75.3765ZM-2.26545 82.0269C-3.02962 89.6851 4.21794 96.4863 13.6348 97.426L13.7341 96.4309C4.63021 95.5225 -1.95878 89.0249 -1.27039 82.1262L-2.26545 82.0269ZM13.6348 97.426C23.0517 98.3657 31.5003 93.1306 32.2645 85.4725L31.2694 85.3732C30.5811 92.2719 22.838 97.3394 13.7341 96.4309L13.6348 97.426ZM32.2645 85.4725C32.5157 82.9552 31.8933 80.5176 30.6117 78.3551L29.7514 78.8649C30.936 80.8638 31.4973 83.0899 31.2694 85.3732L32.2645 85.4725ZM30.5529 78.9449C32.2365 77.0783 33.3283 74.8118 33.5794 72.2945L32.5844 72.1952C32.3566 74.4785 31.3664 76.5498 29.8103 78.2751L30.5529 78.9449ZM33.5794 72.2945C33.8954 69.128 32.8295 66.0917 30.8118 63.5676L30.0306 64.1919C31.9109 66.5441 32.8706 69.3267 32.5844 72.1952L33.5794 72.2945ZM30.6227 64.3373C35.1342 62.3505 38.3981 58.6864 38.9509 54.1641L37.9583 54.0427C37.4586 58.1308 34.4944 61.5396 30.2197 63.4222L30.6227 64.3373Z" fill="#DEBA99"/>
</svg>