<svg xmlns="http://www.w3.org/2000/svg" width="242" height="254" viewBox="0 0 242 254" fill="none">
<path opacity="0.2" d="M94.3046 117.112C75.1245 99.4663 63.4846 74.3346 59.2546 44.0785C57.4646 31.3074 56.7845 18.126 51.8145 6.28579C46.8445 -5.56446 36.2445 -16.0635 23.7145 -16.0135C8.33455 -15.9434 -2.95545 -0.480063 -7.06545 14.7831C-15.7055 46.8809 -14.5955 84.2132 9.25455 109.695C27.8245 129.542 55.8546 139.221 72.3146 160.839C88.2546 181.768 91.1545 211.203 109.685 229.879C119.445 239.718 132.635 245.483 146.015 249.096C164.965 254.2 185.555 255.281 203.925 248.395C222.305 241.509 237.965 225.655 241.185 206.279C249.625 155.485 184.735 148.779 150.615 143.224C127.535 139.461 108.775 130.413 94.3046 117.112Z" fill="#69779B"/>
</svg>